<svg xmlns="http://www.w3.org/2000/svg" width="36" height="36" viewBox="0 0 36 36">
  <g fill="none" fill-rule="evenodd">
    <path fill="#F067E6" fill-rule="nonzero" stroke="#F067E6" stroke-width=".5" d="M18,35 C8.61115925,35 1,27.3888407 1,18 C1,8.61115925 8.61115925,1 18,1 C27.3888407,1 35,8.61115925 35,18 C35,27.3888407 27.3888407,35 18,35 Z M18,33 C26.2842712,33 33,26.2842712 33,18 C33,9.71572875 26.2842712,3 18,3 C9.71572875,3 3,9.71572875 3,18 C3,26.2842712 9.71572875,33 18,33 Z"/>
    <path fill="#FFF" d="M18.7731959,15.1953125 L17.2061856,15.1953125 L17.2061856,26 L18.7731959,26 L18.7731959,15.1953125 Z M18.0103093,11 C17.4329897,11 17,11.4921875 17,12.1484375 C17,12.8046875 17.4329897,13.296875 17.9896907,13.296875 C18.5463918,13.296875 19,12.8046875 19,12.171875 C19,11.515625 18.5670103,11 18.0103093,11 Z"/>
  </g>
</svg>
