<svg xmlns="http://www.w3.org/2000/svg" width="24" height="24" viewBox="0 0 24 24">
  <g fill="none" fill-rule="evenodd">
    <path fill="#F067E6" fill-rule="nonzero" d="M12,24 C5.372583,24 0,18.627417 0,12 C0,5.372583 5.372583,0 12,0 C18.627417,0 24,5.372583 24,12 C24,18.627417 18.627417,24 12,24 Z M12,22.2352941 C17.6527969,22.2352941 22.2352941,17.6527969 22.2352941,12 C22.2352941,6.34720315 17.6527969,1.76470588 12,1.76470588 C6.34720315,1.76470588 1.76470588,6.34720315 1.76470588,12 C1.76470588,17.6527969 6.34720315,22.2352941 12,22.2352941 Z"/>
    <path fill="#FC0000" d="M12.8342856,9.42857143 L12.8342856,18 L11.1199999,18 L11.1199999,9.42857143 L12.8342856,9.42857143 Z M11.9859793,6 C12.4631516,6 12.8342856,6.38483965 12.8342856,6.87463557 C12.8342856,7.34693878 12.4454785,7.71428571 11.9683062,7.71428571 C11.4911339,7.71428571 11.1199999,7.34693878 11.1199999,6.85714286 C11.1199999,6.36734694 11.4911339,6 11.9859793,6 Z"/>
  </g>
</svg>
