<?xml version="1.0" encoding="utf-8"?>
<!-- Generator: Adobe Illustrator 21.1.0, SVG Export Plug-In . SVG Version: 6.00 Build 0)  -->
<svg version="1.1" id="Layer_1" xmlns="http://www.w3.org/2000/svg" xmlns:xlink="http://www.w3.org/1999/xlink" x="0px" y="0px"
	 viewBox="0 0 4 4" style="enable-background:new 0 0 4 4;" xml:space="preserve">
<style type="text/css">
	.st0{fill:#646464;}
</style>
<path class="st0" d="M-17,3.2l-1.3-1.3l-0.4,0.4L-17,4l3.6-3.6L-13.8,0L-17,3.2z"/>
<path class="st0" d="M4,3.4L3.2,2.2C3.1,2,3,1.8,2.9,1.7L2.1,0.5c-0.1-0.1-0.2-0.1-0.3,0L1.1,1.7C1,1.8,0.9,2,0.8,2.2L0,3.4
	C0,3.5,0,3.6,0.2,3.6h1.6c0.1,0,0.4,0,0.5,0h1.6C4,3.6,4,3.5,4,3.4z M2.2,3.1H1.8V2.8h0.3V3.1z M2.2,2.4H1.8V1.2h0.3V2.4z"/>
</svg>
