<?xml version="1.0" standalone="no"?><!DOCTYPE svg PUBLIC "-//W3C//DTD SVG 1.1//EN" "http://www.w3.org/Graphics/SVG/1.1/DTD/svg11.dtd" ><svg xmlns="http://www.w3.org/2000/svg"><metadata></metadata><defs><font id="1.0; pdf-x uazero; original kerning;" horiz-adv-x="1223"><font-face font-family="Clarendon Text Pro" font-weight="400" font-stretch="normal" units-per-em="1000" panose-1="2 0 5 5 0 0 0 2 0 4" ascent="739" descent="-261" x-height="4" bbox="-87 -270 1184 776" underline-thickness="50" underline-position="-75" unicode-range="U+0009-fb02" /><missing-glyph horiz-adv-x="229"  /><glyph glyph-name="" unicode=" " d="" /><glyph glyph-name="" unicode="!" d="M153 181 l62 0 l34 466 q-1 27 -20 45 q-19 18 -45 19 q-29 -1 -48 -20 q-19 -20 -20 -49 l37 -461 ZM111 58 q1 -29 21 -49 q21 -20 50 -21 q29 1 49 21 q20 20 21 49 q-1 30 -21 50 q-20 20 -49 21 q-29 -1 -50 -21 q-20 -20 -21 -50 l0 0 Z" /><glyph glyph-name="" unicode="&amp;" d="M696 236 q1 -80 -12 -112 q-13 -33 -46 -32 q-19 0 -42 15 q-24 14 -50 39 q35 50 62 117 q28 67 45 152 q5 16 24 21 q20 5 43 4 l27 0 l0 57 l-242 0 l0 -57 q38 1 53 -5 q14 -6 13 -28 q0 -49 -19 -105 q-19 -55 -53 -106 q-42 48 -82 106 q-40 59 -71 115 q53 28 91 65 q37 38 39 98 q-1 63 -40 96 q-39 33 -100 33 q-68 -1 -111 -38 q-44 -38 -46 -106 q0 -29 12 -66 q12 -37 33 -79 q-70 -36 -123 -90 q-52 -53 -55 -144 q3 -95 66 -147 q63 -53 155 -54 q51 0 104 20 q54 20 105 63 q39 -39 72 -61 q32 -22 56 -22 q16 0 31 2 q69 10 97 64 q29 53 28 144 l-1 41 l-63 0 ZM305 69 q-64 2 -105 44 q-41 42 -42 106 q1 50 28 85 q26 34 67 59 q37 -64 82 -127 q45 -64 93 -118 q-28 -23 -59 -36 q-31 -13 -64 -13 l0 0 ZM278 578 q0 29 15 48 q16 20 47 21 q29 -1 44 -20 q16 -20 16 -47 q-1 -35 -24 -61 q-23 -27 -60 -48 q-17 36 -28 64 q-10 28 -10 43 l0 0 Z" /><glyph glyph-name="" unicode="&#39;" d="M91 459 l53 0 l31 240 q-1 23 -17 35 q-17 11 -40 11 q-24 0 -40 -12 q-16 -11 -17 -36 l30 -238 Z" /><glyph glyph-name="" unicode="(" d="M379 -172 q-116 70 -175 164 q-59 93 -59 269 q2 178 65 282 q63 105 169 163 l-18 36 q-147 -64 -233 -185 q-86 -121 -88 -281 q0 -162 80 -288 q79 -127 239 -193 l20 33 Z" /><glyph glyph-name="" unicode=")" d="M70 -204 q160 66 239 193 q80 126 80 288 q-2 160 -88 281 q-86 121 -233 185 l-18 -36 q106 -58 170 -163 q63 -104 65 -282 q0 -176 -59 -269 q-60 -94 -176 -164 l20 -33 Z" /><glyph glyph-name="" unicode="," d="M127 130 q-30 -1 -50 -20 q-20 -19 -21 -49 q0 -27 16 -46 q16 -19 41 -20 q11 0 23 4 q-1 -35 -24 -60 q-23 -24 -54 -25 l0 -46 q67 2 104 50 q37 47 38 111 q-1 51 -21 76 q-20 25 -52 25 l0 0 Z" /><glyph glyph-name="" unicode="-" d="M37 329 l0 -87 l265 0 l0 87 l-265 0 Z" /><glyph glyph-name="" unicode="." d="M57 58 q1 -29 21 -49 q21 -20 50 -21 q29 1 49 21 q20 20 21 49 q-1 30 -21 50 q-20 20 -49 21 q-29 -1 -50 -21 q-20 -20 -21 -50 l0 0 Z" /><glyph glyph-name="" unicode="0" d="M50 343 q-3 -131 53 -241 q56 -111 200 -118 q147 6 205 115 q57 109 54 244 q4 135 -47 246 q-51 110 -200 117 q-148 -7 -207 -117 q-60 -111 -58 -246 l0 0 ZM307 53 q-97 7 -117 95 q-20 87 -16 174 l0 46 q-3 94 22 179 q24 84 115 90 q86 -3 109 -78 q24 -76 21 -191 l0 -46 q4 -94 -19 -178 q-23 -85 -115 -91 l0 0 Z" /><glyph glyph-name="" unicode="1" d="M161 67 l-97 0 l0 -67 l367 0 l0 67 l-88 0 q-19 2 -29 9 q-11 7 -11 27 l0 602 l-79 0 q-20 -60 -70 -87 q-51 -28 -111 -28 l0 -61 q78 0 153 17 l0 -442 q0 -15 -10 -26 q-10 -11 -25 -11 l0 0 Z" /><glyph glyph-name="" unicode="2" d="M481 240 l0 -84 q-1 -21 -17 -35 q-17 -13 -40 -14 q-56 2 -109 18 q-53 16 -102 18 q-43 1 -84 -26 q10 58 108 107 q98 48 167 87 q59 37 95 82 q36 45 37 116 q-3 105 -74 151 q-71 46 -168 45 q-82 1 -156 -37 q-73 -39 -78 -132 q0 -37 20 -63 q20 -26 57 -27 q29 1 49 19 q19 18 20 46 q0 29 -17 42 q-16 13 -42 20 q18 36 57 50 q39 14 75 13 q58 0 95 -31 q37 -31 38 -92 q-1 -43 -24 -79 q-24 -35 -59 -59 l-179 -118 q-63 -45 -81 -114 q-18 -69 -16 -145 l60 0 q-1 31 7 53 q9 21 42 22 q47 -5 119 -44 q72 -38 140 -44 q62 1 94 42 q31 40 31 102 l0 111 l-65 0 Z" /><glyph glyph-name="" unicode="3" d="M32 145 q5 -87 79 -123 q74 -36 155 -35 q100 0 173 52 q73 53 77 159 q-2 85 -46 124 q-44 39 -112 53 q61 9 102 52 q41 42 43 105 q-4 96 -75 138 q-71 42 -158 41 q-76 1 -148 -34 q-72 -35 -77 -119 q1 -44 22 -63 q22 -19 52 -19 q33 0 52 19 q19 18 19 53 q0 25 -14 39 q-13 13 -34 19 q22 25 52 31 q30 6 59 5 q56 1 95 -27 q39 -27 41 -88 q-4 -86 -66 -105 q-63 -19 -137 -15 l0 -66 q81 3 146 -21 q65 -25 69 -118 q-1 -70 -44 -107 q-43 -37 -110 -37 q-31 -1 -69 8 q-38 8 -54 36 q25 6 40 23 q16 16 16 42 q-1 30 -20 49 q-20 19 -51 20 q-38 -1 -57 -28 q-20 -27 -20 -63 l0 0 Z" /><glyph glyph-name="" unicode="4" d="M312 67 l-76 0 l0 -67 l327 0 l0 67 l-71 0 q-19 2 -29 9 q-11 7 -11 27 l0 95 l137 0 l0 72 l-137 0 l0 429 l-93 0 l-322 -429 l0 -72 l310 0 l0 -94 q0 -15 -10 -26 q-10 -11 -25 -11 l0 0 ZM347 571 l0 -301 l-224 0 l224 301 Z" /><glyph glyph-name="" unicode="5" d="M64 146 q4 -84 71 -123 q66 -39 142 -38 q121 1 194 70 q72 68 74 191 q1 96 -52 165 q-54 70 -172 73 q-47 0 -86 -14 q-39 -14 -70 -47 l8 169 q25 -2 50 -3 q25 -1 50 -1 q104 1 175 35 q71 34 74 84 q-62 -14 -117 -19 q-54 -4 -118 -4 q-65 1 -116 5 q-51 5 -70 8 l-12 -359 l74 0 q22 39 49 55 q26 16 68 15 q78 -2 111 -49 q33 -48 32 -122 q1 -79 -37 -128 q-37 -50 -119 -51 q-33 -1 -67 8 q-33 8 -52 38 q29 1 46 18 q18 17 18 47 q-1 31 -19 51 q-19 19 -50 20 q-39 -1 -59 -29 q-20 -28 -20 -65 l0 0 Z" /><glyph glyph-name="" unicode="6" d="M530 561 q-4 76 -67 111 q-62 35 -131 35 q-159 -5 -218 -112 q-60 -107 -57 -259 q-4 -134 46 -240 q50 -105 196 -111 q105 2 171 65 q65 63 67 169 q0 99 -54 161 q-54 61 -156 63 q-45 1 -86 -15 q-41 -16 -65 -54 q-1 10 -2 17 q0 7 0 16 q-2 93 35 161 q36 69 129 72 q26 1 46 -4 q20 -5 40 -22 q-6 -4 -22 -17 q-16 -12 -18 -44 q0 -31 19 -51 q19 -19 50 -20 q36 1 56 23 q21 23 21 56 l0 0 ZM420 213 q1 -61 -26 -109 q-27 -49 -95 -52 q-70 3 -95 56 q-26 53 -24 116 q-1 62 28 102 q28 40 93 41 q67 -2 93 -47 q27 -45 26 -107 l0 0 Z" /><glyph glyph-name="" unicode="7" d="M203 80 q-1 -36 14 -65 q14 -28 55 -30 q43 2 53 36 q10 34 8 70 q-2 97 30 162 q33 64 128 212 q30 51 43 112 q12 60 12 119 l-62 0 q-1 -23 -9 -37 q-8 -13 -32 -13 q-48 4 -111 31 q-63 26 -111 30 q-42 0 -66 -19 q-24 -20 -40 -58 l0 65 l-75 0 l0 -258 l75 0 l0 111 q2 24 24 34 q21 9 44 9 q45 -2 88 -16 q44 -14 90 -16 q35 0 61 9 q25 10 49 36 q-31 -126 -142 -215 q-111 -90 -126 -309 l0 0 Z" /><glyph glyph-name="" unicode="8" d="M55 178 q4 -103 79 -148 q74 -46 169 -45 q99 -1 174 47 q75 48 79 156 q0 67 -33 110 q-33 44 -96 67 q49 28 80 69 q31 40 32 98 q-4 93 -74 134 q-70 42 -155 41 q-95 0 -164 -49 q-70 -49 -73 -149 q0 -52 23 -94 q23 -42 69 -69 q-50 -26 -80 -68 q-29 -42 -30 -100 l0 0 ZM147 188 q0 42 22 76 q21 34 57 55 l155 -54 q33 -11 51 -35 q18 -24 18 -57 q-2 -64 -44 -92 q-43 -28 -103 -27 q-64 0 -109 33 q-45 32 -47 101 l0 0 ZM178 530 q2 59 39 85 q38 26 93 25 q57 1 96 -26 q39 -27 41 -89 q-1 -44 -24 -79 q-23 -35 -63 -54 q0 -1 -22 7 q-23 8 -89 32 q-33 13 -52 38 q-19 25 -19 61 l0 0 Z" /><glyph glyph-name="" unicode="9" d="M64 131 q4 -76 67 -111 q62 -35 131 -35 q159 5 219 112 q59 107 56 259 q4 134 -46 240 q-50 105 -196 111 q-105 -1 -171 -64 q-65 -63 -67 -170 q0 -99 54 -161 q54 -61 156 -63 q45 -1 86 15 q41 16 65 54 q1 -10 2 -17 q0 -7 0 -16 q2 -93 -35 -161 q-36 -69 -129 -72 q-26 -1 -46 4 q-20 5 -40 22 q6 4 22 17 q16 12 18 44 q0 31 -19 51 q-19 19 -50 20 q-36 -1 -56 -23 q-21 -23 -21 -56 l0 0 ZM174 479 q-1 61 26 109 q27 49 95 52 q70 -3 96 -56 q25 -53 23 -116 q1 -62 -27 -102 q-29 -40 -94 -41 q-66 2 -93 47 q-27 45 -26 107 l0 0 Z" /><glyph glyph-name="" unicode=":" d="M70 430 q1 -29 21 -49 q21 -20 50 -21 q29 1 49 21 q20 20 21 49 q-1 29 -21 49 q-20 20 -49 21 q-29 -1 -50 -21 q-20 -20 -21 -49 l0 0 ZM70 58 q1 -29 21 -49 q21 -20 50 -21 q29 1 49 21 q20 20 21 49 q-1 30 -21 50 q-20 20 -49 21 q-29 -1 -50 -21 q-20 -20 -21 -50 l0 0 Z" /><glyph glyph-name="" unicode=";" d="M138 130 q-30 -1 -50 -20 q-20 -19 -21 -49 q0 -27 16 -46 q16 -19 41 -20 q11 0 23 4 q-1 -35 -24 -60 q-23 -24 -54 -25 l0 -46 q67 2 104 50 q37 47 38 111 q-1 51 -21 76 q-20 25 -52 25 l0 0 ZM69 430 q1 -29 21 -49 q20 -20 50 -21 q29 1 49 21 q20 20 21 49 q-1 29 -21 49 q-20 20 -49 21 q-30 -1 -50 -21 q-20 -20 -21 -49 l0 0 Z" /><glyph glyph-name="" unicode="a" d="M-18 67 l0 -67 l255 0 l0 67 l-19 0 q-35 -1 -53 5 q-18 5 -18 25 q0 7 10 37 q11 30 31 91 l270 0 q31 -84 38 -104 q7 -21 6 -21 q0 -12 -6 -22 q-6 -10 -20 -11 l-62 0 l0 -67 l299 0 l0 67 l-16 0 q-20 -1 -40 4 q-20 5 -28 24 l-229 601 l-109 0 l-225 -591 q-11 -27 -30 -33 q-18 -6 -46 -5 l-8 0 ZM215 292 l97 256 l13 52 l11 -51 l95 -257 l-216 0 Z" /><glyph glyph-name="" unicode="b" d="M115 626 q15 0 25 -11 q10 -11 10 -26 l0 -485 q0 -15 -10 -26 q-10 -11 -25 -11 l-76 0 l0 -67 l463 0 q81 2 133 57 q53 54 55 135 q-2 81 -58 123 q-55 41 -136 47 q71 14 116 50 q45 36 46 111 q-1 83 -54 127 q-52 43 -139 43 l-426 0 l0 -67 l76 0 ZM267 326 l185 0 q53 -2 84 -42 q30 -40 31 -88 q-3 -85 -62 -109 q-59 -24 -143 -21 l-95 0 l0 260 ZM267 626 l179 0 q43 -2 67 -37 q25 -35 25 -75 q-1 -45 -30 -81 q-29 -36 -80 -38 l-161 0 l0 231 Z" /><glyph glyph-name="" unicode="c" d="M35 342 q0 -161 83 -261 q83 -101 251 -104 q163 3 234 94 q72 90 70 227 l-73 0 q0 -104 -54 -174 q-54 -69 -161 -72 q-124 5 -172 91 q-47 86 -45 199 q-3 113 42 204 q44 91 167 96 q73 2 135 -44 q62 -45 85 -162 l66 0 l0 265 l-59 0 l-32 -65 q-42 40 -95 61 q-52 22 -110 22 q-159 -5 -245 -115 q-86 -110 -87 -262 l0 0 Z" /><glyph glyph-name="" unicode="d" d="M115 626 q15 0 25 -11 q10 -11 10 -26 l0 -485 q0 -15 -10 -26 q-10 -11 -25 -11 l-76 0 l0 -67 l412 0 q150 4 234 105 q84 102 85 259 q-3 132 -86 228 q-83 96 -217 101 l-428 0 l0 -67 l76 0 ZM267 626 l173 0 q94 -4 146 -79 q51 -75 52 -174 q4 -125 -42 -214 q-45 -88 -183 -92 l-146 0 l0 559 Z" /><glyph glyph-name="" unicode="e" d="M499 626 q75 -4 96 -65 q21 -60 21 -125 l63 0 l0 257 l-640 0 l0 -67 l76 0 q15 0 25 -8 q10 -9 10 -29 l0 -485 q0 -15 -10 -26 q-10 -11 -25 -11 l-76 0 l0 -67 l650 0 l0 284 l-63 0 q0 -83 -21 -147 q-21 -64 -96 -68 l-244 0 l0 257 l109 0 q41 -2 53 -30 q12 -28 11 -65 l0 -39 l59 0 l0 331 l-58 0 l0 -68 q0 -24 -16 -41 q-16 -17 -45 -18 l-113 0 l0 230 l234 0 Z" /><glyph glyph-name="" unicode="f" d="M115 626 q15 0 25 -11 q10 -11 10 -26 l0 -485 q0 -15 -10 -26 q-10 -11 -25 -11 l-76 0 l0 -67 l345 0 l0 67 l-80 0 q-19 0 -29 8 q-10 7 -10 28 l0 223 l90 0 q41 -2 53 -30 q11 -28 10 -65 l0 -39 l59 0 l0 331 l-58 0 l0 -67 q0 -24 -16 -41 q-16 -17 -44 -18 l-94 0 l0 229 l215 0 q75 -4 96 -65 q20 -60 21 -125 l62 0 l0 257 l-620 0 l0 -67 l76 0 Z" /><glyph glyph-name="" unicode="g" d="M523 290 q15 0 25 -11 q10 -11 10 -26 l0 -75 q-3 -59 -57 -89 q-53 -30 -116 -30 q-124 5 -172 91 q-47 86 -45 199 q-3 113 42 204 q44 91 167 96 q73 2 135 -44 q62 -45 85 -162 l66 0 l0 264 l-59 0 l-31 -64 q-44 39 -96 61 q-53 22 -110 22 q-159 -5 -245 -115 q-86 -110 -87 -262 q0 -161 83 -262 q83 -101 251 -104 q73 0 127 20 q54 20 91 56 l22 -59 l64 0 l0 254 q0 21 11 29 q10 7 29 7 l49 0 l0 67 l-321 0 l0 -67 l82 0 Z" /><glyph glyph-name="" unicode="h" d="M571 626 q15 0 25 -11 q10 -11 10 -26 l0 -192 l-341 0 l0 193 q0 20 10 28 q10 8 29 8 l71 0 l0 67 l-336 0 l0 -67 l76 0 q15 0 25 -11 q10 -11 10 -26 l0 -485 q0 -15 -10 -26 q-10 -11 -25 -11 l-76 0 l0 -67 l336 0 l0 67 l-71 0 q-19 0 -29 8 q-10 7 -10 28 l0 225 l341 0 l0 -224 q0 -15 -10 -26 q-10 -11 -25 -11 l-75 0 l0 -67 l335 0 l0 67 l-70 0 q-19 0 -29 8 q-11 7 -11 28 l0 487 q0 20 11 28 q10 8 29 8 l70 0 l0 67 l-335 0 l0 -67 l75 0 Z" /><glyph glyph-name="" unicode="i" d="M115 626 q15 0 25 -11 q10 -11 10 -26 l0 -485 q0 -15 -10 -26 q-10 -11 -25 -11 l-76 0 l0 -67 l336 0 l0 67 l-71 0 q-19 0 -29 8 q-10 7 -10 28 l0 487 q0 20 10 28 q10 8 29 8 l71 0 l0 67 l-336 0 l0 -67 l76 0 Z" /><glyph glyph-name="" unicode="j" d="M221 626 q15 0 25 -11 q10 -11 10 -26 l0 -441 q0 -47 -27 -74 q-27 -27 -74 -28 q-19 0 -38 6 q-19 6 -31 22 q29 1 46 17 q18 17 18 47 q0 30 -19 48 q-19 18 -50 18 q-37 -1 -58 -26 q-22 -25 -23 -61 q3 -71 54 -106 q52 -36 117 -36 q92 1 145 53 q54 52 55 143 l0 419 q0 20 11 28 q10 8 29 8 l70 0 l0 67 l-335 0 l0 -67 l75 0 Z" /><glyph glyph-name="" unicode="k" d="M120 67 l-79 0 l0 -67 l335 0 l0 67 l-79 0 q-13 0 -22 9 q-9 9 -9 22 l0 169 l92 84 l171 -226 q7 -8 13 -19 q7 -11 7 -22 q0 -7 -6 -12 q-6 -5 -12 -5 l-71 0 l0 -67 l321 0 l0 64 q-20 -1 -47 4 q-27 5 -45 27 l-246 331 q122 111 171 156 q49 46 68 44 l66 0 l0 67 l-309 0 l0 -67 l72 0 q9 0 14 -5 q4 -5 4 -12 q0 -15 -68 -75 q-67 -60 -195 -180 l0 236 q0 20 10 28 q10 8 29 8 l71 0 l0 67 l-337 0 l0 -67 l76 0 q15 0 25 -11 q10 -11 10 -26 l0 -499 q-1 -10 -11 -16 q-10 -7 -19 -7 l0 0 Z" /><glyph glyph-name="" unicode="l" d="M39 67 l0 -67 l613 0 l0 284 l-63 0 q0 -84 -20 -149 q-21 -65 -96 -68 l-208 0 l0 523 q0 20 10 28 q10 8 29 8 l80 0 l0 67 l-345 0 l0 -67 l76 0 q15 0 25 -11 q10 -11 10 -26 l0 -485 q0 -15 -10 -26 q-10 -11 -25 -11 l-76 0 Z" /><glyph glyph-name="" unicode="m" d="M721 67 l-75 0 l0 -67 l335 0 l0 67 l-70 0 q-19 0 -29 8 q-11 7 -11 28 l0 487 q0 20 11 28 q10 8 29 8 l70 0 l0 67 l-268 0 l-201 -531 q-207 531 -208 531 l-265 0 l0 -67 l75 0 q15 0 25 -11 q10 -11 10 -26 l0 -485 q0 -15 -10 -26 q-10 -11 -25 -11 l-75 0 l0 -67 l297 0 l0 67 l-70 0 q-19 0 -29 8 q-11 7 -11 28 l0 511 l232 -614 l64 0 l234 617 l0 -513 q0 -15 -10 -26 q-10 -11 -25 -11 l0 0 Z" /><glyph glyph-name="" unicode="n" d="M692 589 q0 15 10 26 q9 11 25 11 l75 0 l0 67 l-296 0 l0 -67 l71 0 q18 0 29 -8 q10 -8 10 -28 l0 -373 l5 -61 l-13 34 l-341 503 l-228 0 l0 -67 l76 0 q15 0 25 -11 q10 -11 10 -26 l0 -485 q0 -15 -10 -26 q-10 -11 -25 -11 l-76 0 l0 -67 l297 0 l0 67 l-70 0 q-19 0 -29 8 q-11 7 -11 28 l0 429 l-8 56 l33 -68 l357 -520 l84 0 l0 589 Z" /><glyph glyph-name="" unicode="o" d="M35 340 q3 -170 100 -266 q97 -95 245 -97 q171 3 263 106 q92 103 93 269 q-1 163 -92 262 q-90 99 -253 102 q-184 -4 -270 -109 q-87 -106 -86 -267 l0 0 ZM166 344 q-3 117 45 208 q48 90 178 95 q125 -5 170 -93 q44 -89 41 -205 q3 -118 -43 -207 q-46 -89 -174 -94 q-129 4 -174 90 q-46 86 -43 206 l0 0 Z" /><glyph glyph-name="" unicode="p" d="M39 67 l0 -67 l336 0 l0 67 l-70 0 q-19 0 -29 8 q-10 7 -10 28 l0 200 l214 0 q84 2 134 57 q49 55 50 137 q-2 98 -65 147 q-62 49 -159 49 l-401 0 l0 -67 l76 0 q15 0 25 -11 q10 -11 10 -26 l0 -485 q0 -15 -10 -26 q-10 -11 -25 -11 l-76 0 ZM266 626 l156 0 q54 -2 87 -38 q33 -37 34 -90 q-1 -55 -35 -91 q-35 -37 -91 -38 l-151 0 l0 257 Z" /><glyph glyph-name="" unicode="q" d="M40 340 q3 -170 100 -266 q97 -95 245 -97 q41 0 78 7 q36 6 68 19 q28 -49 67 -83 q39 -34 97 -35 q54 0 90 29 q35 28 36 80 l0 138 l-60 0 l0 -63 q1 -23 -11 -46 q-11 -24 -41 -26 q-30 0 -50 13 q-19 13 -41 45 q60 51 91 127 q32 76 32 170 q-1 163 -92 262 q-90 99 -253 102 q-184 -4 -270 -109 q-87 -106 -86 -267 l0 0 ZM171 344 q-3 117 45 208 q48 90 178 95 q125 -5 170 -93 q44 -89 41 -205 q0 -60 -10 -115 q-10 -55 -36 -98 q-38 53 -80 86 q-43 34 -108 35 q-61 0 -101 -31 q-40 -32 -57 -89 q-24 42 -33 95 q-9 54 -9 112 l0 0 ZM356 183 q51 -2 81 -35 q30 -34 53 -77 q-40 -23 -102 -23 q-42 0 -74 11 q-33 10 -56 28 q2 42 28 69 q27 26 70 27 l0 0 Z" /><glyph glyph-name="" unicode="r" d="M39 67 l0 -67 l336 0 l0 67 l-70 0 q-19 0 -29 8 q-10 7 -10 28 l0 214 l154 0 q33 -1 55 -23 q21 -22 24 -54 l17 -153 q7 -52 42 -77 q35 -25 86 -25 q91 3 111 49 q20 45 16 97 l0 86 l-67 0 l0 -115 q0 -17 -8 -27 q-9 -9 -26 -9 q-17 0 -23 8 q-7 8 -8 24 l-15 126 q-5 58 -30 84 q-24 26 -82 34 q78 10 123 51 q45 40 46 120 q-2 92 -59 136 q-58 44 -146 44 l-437 0 l0 -67 l76 0 q15 0 25 -11 q10 -11 10 -26 l0 -485 q0 -15 -10 -26 q-10 -11 -25 -11 l-76 0 ZM266 626 l181 0 q50 -2 80 -36 q30 -35 31 -82 q-1 -50 -33 -85 q-31 -36 -82 -38 l-177 0 l0 241 Z" /><glyph glyph-name="" unicode="s" d="M129 50 q45 -41 91 -57 q46 -17 110 -16 q105 0 177 52 q71 52 74 163 q-1 71 -32 116 q-32 44 -82 59 l-260 81 q-30 11 -47 34 q-17 23 -17 50 q2 57 41 82 q40 25 92 24 q93 -2 146 -58 q54 -57 65 -149 l64 0 l0 262 l-56 0 l-31 -54 q-41 36 -88 53 q-47 17 -102 17 q-96 0 -165 -52 q-70 -52 -73 -152 q0 -50 31 -101 q31 -52 100 -75 l251 -74 q29 -9 46 -31 q16 -23 16 -53 q-3 -63 -52 -91 q-48 -28 -106 -28 q-99 1 -148 57 q-50 56 -71 148 l-62 0 l0 -265 l56 0 l32 58 Z" /><glyph glyph-name="" unicode="t" d="M641 693 l-621 0 l0 -257 l61 0 q5 83 27 135 q22 51 98 53 l66 0 l0 -520 q0 -15 -10 -26 q-10 -11 -25 -11 l-76 0 l0 -67 l336 0 l0 67 l-71 0 q-19 0 -29 8 q-10 7 -10 28 l0 521 l69 0 q76 -2 98 -53 q22 -52 27 -135 l60 0 l0 257 Z" /><glyph glyph-name="" unicode="u" d="M235 169 l0 421 q0 21 11 29 q10 7 29 7 l66 0 l0 67 l-333 0 l0 -67 l77 0 q16 0 25 -10 q10 -11 10 -26 l0 -431 q6 -112 93 -146 q88 -35 189 -32 q94 -1 172 44 q78 44 83 146 l0 419 q0 15 10 26 q9 10 25 10 l75 0 l0 67 l-298 0 l0 -67 l69 0 q19 0 29 -7 q11 -8 11 -29 l0 -411 q-3 -68 -54 -93 q-51 -26 -113 -25 q-60 -1 -116 22 q-56 23 -60 86 l0 0 Z" /><glyph glyph-name="" unicode="v" d="M450 693 l0 -67 l34 0 q28 1 45 -4 q17 -5 17 -25 q-9 -30 -77 -217 q-67 -186 -84 -236 l-16 -52 l-12 51 q-119 317 -145 389 q-26 72 -21 62 q0 12 6 22 q6 9 20 10 l71 0 l0 67 l-308 0 l0 -67 l31 0 q19 1 34 -4 q16 -5 25 -23 l223 -604 l112 0 q13 35 77 213 q64 178 140 381 q11 29 34 34 q22 4 53 3 l0 67 l-259 0 Z" /><glyph glyph-name="" unicode="w" d="M735 693 l0 -67 l34 0 q28 1 45 -4 q17 -5 17 -25 q-3 -14 -45 -145 q-42 -131 -90 -284 l-12 -47 l-8 44 q-67 222 -99 324 q-31 103 -31 105 q0 12 6 22 q6 9 19 10 l72 0 l0 67 l-308 0 l0 -67 l34 0 q20 1 35 -4 q16 -5 24 -23 l28 -98 l-117 -336 l-11 -44 l-8 40 q-61 206 -95 317 q-34 111 -35 116 q0 12 6 22 q7 9 20 10 l54 0 l0 67 l-285 0 l0 -67 l25 0 q20 1 35 -4 q16 -5 24 -23 l188 -604 l95 0 l139 398 l124 -398 l104 0 q14 49 67 220 q53 171 120 374 q11 30 34 34 q23 3 54 3 l0 67 l-259 0 Z" /><glyph glyph-name="" unicode="x" d="M4 67 l0 -67 l282 0 l0 67 l-68 0 q-8 0 -15 4 q-7 4 -8 13 q0 6 3 13 q3 6 8 11 l131 172 l125 -173 q4 -5 5 -10 q2 -5 2 -12 q0 -8 -7 -13 q-6 -5 -16 -5 l-55 0 l0 -67 l316 0 l0 67 l-63 0 q-18 -3 -64 62 q-46 66 -178 240 q111 149 155 204 q44 56 75 53 l58 0 l0 67 l-284 0 l0 -67 l61 0 q8 0 12 -6 q4 -5 4 -16 q3 -6 -19 -37 q-23 -32 -106 -139 q-85 116 -104 143 q-20 27 -16 33 q0 7 4 14 q4 7 12 8 l63 0 l0 67 l-318 0 l0 -67 l57 0 q11 -1 23 -8 q12 -6 19 -15 l193 -264 q-125 -160 -164 -218 q-39 -57 -67 -54 l-56 0 Z" /><glyph glyph-name="" unicode="y" d="M397 693 l0 -67 l29 0 q33 1 46 -4 q14 -5 13 -25 q2 -4 -30 -55 q-32 -51 -118 -196 q-64 107 -104 175 q-41 68 -42 73 q0 12 6 22 q7 9 20 10 l66 0 l0 67 l-308 0 l0 -67 l23 0 q20 1 35 -4 q16 -5 24 -23 l204 -334 l0 -161 q0 -15 -10 -26 q-9 -11 -25 -11 l-75 0 l0 -67 l336 0 l0 67 l-71 0 q-19 0 -29 8 q-11 7 -11 28 l0 167 q129 213 160 266 q32 52 32 53 q17 27 40 32 q23 6 54 5 l0 67 l-265 0 Z" /><glyph glyph-name="" unicode="z" d="M18 67 l0 -67 l582 0 l0 279 l-62 0 q-1 -86 -25 -148 q-24 -61 -118 -64 l-236 0 l437 557 l0 69 l-553 0 l0 -255 l60 0 q5 83 27 135 q22 51 98 53 l228 0 l-438 -559 Z" /><glyph glyph-name="" unicode="a" d="M546 64 q-11 -5 -23 -9 q-12 -4 -23 -4 q-19 0 -25 10 q-6 10 -6 32 l0 306 q-4 78 -67 107 q-64 30 -134 28 q-61 2 -128 -24 q-66 -26 -72 -99 q0 -33 17 -53 q18 -19 52 -20 q26 0 44 16 q17 16 18 45 q0 33 -31 49 q14 11 37 17 q23 6 49 6 q43 1 76 -21 q32 -21 34 -73 l0 -44 q-45 -6 -85 -15 q-41 -10 -83 -24 q-65 -21 -109 -61 q-44 -40 -46 -111 q2 -69 44 -103 q43 -35 109 -35 q52 0 102 23 q51 23 73 73 q2 -43 23 -68 q20 -25 68 -26 q21 0 42 4 q20 3 44 12 l0 62 ZM151 141 q11 73 96 103 q85 29 117 28 l0 -69 q-1 -62 -42 -99 q-40 -38 -102 -39 q-32 1 -50 22 q-19 22 -19 54 l0 0 Z" /><glyph glyph-name="" unicode="b" d="M176 69 q27 -43 69 -63 q43 -20 92 -20 q121 4 181 87 q59 82 59 197 q0 108 -55 184 q-56 77 -168 80 q-53 0 -98 -23 q-45 -23 -69 -69 l0 320 l-196 -20 l0 -56 l50 0 q29 -2 37 -19 q7 -17 6 -29 l0 -638 l57 0 l35 69 ZM325 464 q79 -4 107 -63 q28 -60 26 -133 q2 -78 -25 -143 q-28 -66 -113 -70 q-81 4 -110 64 q-29 60 -27 133 q-2 77 26 142 q29 66 116 70 l0 0 Z" /><glyph glyph-name="" unicode="c" d="M29 255 q1 -117 66 -191 q65 -75 185 -77 q102 1 163 54 q61 53 62 147 l-71 0 q-1 -57 -37 -89 q-36 -32 -98 -33 q-83 3 -115 63 q-32 59 -31 134 q-2 76 30 138 q31 61 113 65 q20 1 45 -3 q25 -3 39 -18 q-19 -11 -28 -27 q-10 -16 -10 -36 q1 -30 20 -47 q20 -17 49 -17 q34 1 55 22 q21 21 22 55 q-4 72 -62 105 q-58 33 -123 33 q-127 -2 -200 -78 q-73 -76 -74 -200 l0 0 Z" /><glyph glyph-name="" unicode="d" d="M525 762 l-195 -17 l0 -57 l66 0 q9 0 16 -5 q8 -6 8 -21 l0 -209 q-25 48 -65 64 q-41 17 -96 16 q-115 -4 -171 -86 q-56 -82 -56 -198 q0 -112 58 -185 q58 -73 178 -76 q58 1 100 35 q43 34 72 86 l-11 -54 l0 -55 l178 0 l0 61 l-51 0 q-15 0 -23 9 q-8 8 -8 29 l0 663 ZM151 249 q-2 71 22 141 q24 69 103 74 q78 -2 113 -44 q36 -43 35 -107 l0 -89 q-2 -63 -42 -114 q-40 -51 -93 -54 q-84 3 -112 61 q-28 58 -26 132 l0 0 Z" /><glyph glyph-name="" unicode="e" d="M34 258 q0 -120 67 -195 q66 -76 197 -78 q113 5 174 67 q60 61 61 121 l-67 0 q2 -7 -29 -57 q-31 -51 -125 -58 q-66 -2 -110 40 q-45 42 -47 149 l384 0 q1 125 -57 205 q-58 79 -187 82 q-123 -3 -191 -79 q-69 -77 -70 -197 l0 0 ZM291 467 q68 -2 95 -47 q27 -45 26 -106 l-254 0 q0 63 34 107 q34 44 99 46 l0 0 Z" /><glyph glyph-name="" unicode="f" d="M335 0 l0 61 l-83 0 q-15 0 -23 9 q-8 8 -8 29 l0 358 l140 0 l0 58 l-140 0 l0 139 q1 28 19 46 q19 18 48 19 q13 0 22 -3 q9 -3 9 -3 q-9 -10 -13 -19 q-5 -9 -5 -24 q0 -25 16 -41 q16 -16 42 -17 q30 0 48 18 q18 18 19 51 q-3 54 -47 74 q-44 21 -93 20 q-64 1 -116 -30 q-53 -30 -56 -97 l0 -133 l-81 0 l0 -58 l80 0 l0 -358 q-1 -23 -11 -31 q-11 -8 -19 -7 l-56 0 l0 -61 l308 0 Z" /><glyph glyph-name="" unicode="g" d="M34 -120 q7 -86 91 -115 q84 -28 156 -26 q101 -2 202 41 q100 44 108 161 q-1 58 -30 88 q-30 31 -79 43 q-18 6 -52 10 q-35 5 -107 5 q-35 -1 -77 -7 q-42 -6 -64 -7 q-23 0 -35 15 q-12 14 -12 37 q1 21 16 39 q14 18 36 19 q26 -10 56 -14 q29 -5 61 -5 q87 -1 154 41 q66 42 70 136 q1 30 -8 58 q-8 27 -33 55 l111 0 l0 68 l-104 0 l-43 -28 q-32 20 -71 30 q-39 10 -76 10 q-90 0 -157 -45 q-68 -46 -71 -141 q0 -41 15 -74 q14 -33 44 -60 q-42 -21 -70 -49 q-28 -28 -29 -76 q1 -41 23 -66 q23 -26 61 -36 q-40 -15 -63 -41 q-23 -26 -23 -66 l0 0 ZM136 -105 q2 46 24 61 q23 16 48 20 q15 3 50 7 q36 4 59 4 q24 0 60 -4 q36 -4 56 -8 q25 -5 42 -20 q17 -15 18 -45 q-7 -66 -75 -86 q-69 -20 -121 -18 q-49 -2 -103 15 q-54 17 -58 74 l0 0 ZM195 350 q0 52 26 86 q25 34 80 35 q59 -1 84 -33 q26 -33 25 -90 q1 -55 -24 -88 q-25 -32 -82 -33 q-57 1 -83 34 q-26 33 -26 89 l0 0 Z" /><glyph glyph-name="" unicode="h" d="M303 0 l0 61 l-56 0 q-14 0 -22 9 q-8 8 -8 29 l0 235 q2 54 43 87 q41 32 94 33 q37 0 65 -20 q28 -20 29 -60 l0 -287 q0 -11 -8 -18 q-8 -8 -20 -8 l-48 0 l0 -61 l267 0 l0 61 l-58 0 q-11 1 -18 10 q-8 9 -8 19 l0 308 q-6 66 -55 101 q-49 35 -111 35 q-61 0 -106 -29 q-46 -30 -77 -86 l11 52 l0 291 l-198 -17 l0 -57 l66 0 q9 0 16 -5 q8 -6 8 -21 l0 -563 q-1 -23 -11 -31 q-10 -8 -18 -7 l-54 0 l0 -61 l277 0 Z" /><glyph glyph-name="" unicode="i" d="M92 667 q1 -28 19 -47 q19 -18 47 -19 q29 1 50 20 q20 18 21 49 q-1 29 -20 48 q-20 20 -48 21 q-31 -1 -49 -22 q-19 -21 -20 -50 l0 0 ZM308 0 l0 61 l-55 0 q-15 0 -23 9 q-8 8 -8 29 l0 435 l-192 -17 l0 -57 l61 0 q8 0 16 -5 q7 -6 8 -21 l0 -335 q-1 -23 -11 -31 q-11 -8 -19 -7 l-54 0 l0 -61 l277 0 Z" /><glyph glyph-name="" unicode="j" d="M15 460 l66 0 q8 0 16 -5 q7 -6 8 -21 l0 -565 q0 -34 -17 -56 q-17 -22 -52 -23 q-10 0 -20 2 q-11 3 -18 10 q19 6 29 19 q11 13 11 35 q0 27 -16 42 q-15 16 -40 16 q-33 -1 -51 -22 q-18 -22 -18 -52 q2 -56 44 -83 q41 -27 94 -27 q68 1 115 38 q46 37 48 105 l0 661 l-199 -17 l0 -57 ZM82 665 q1 -28 20 -47 q18 -18 46 -19 q29 1 50 20 q20 18 21 49 q-1 29 -20 49 q-19 19 -48 20 q-30 -1 -49 -22 q-19 -21 -20 -50 l0 0 Z" /><glyph glyph-name="" unicode="k" d="M276 0 l0 61 l-46 0 q-14 0 -22 9 q-8 8 -8 29 l0 89 l80 73 q68 -83 101 -128 q33 -45 33 -58 q0 -6 -6 -10 q-6 -4 -12 -4 l-54 0 l0 -61 l277 0 l0 58 q-26 -1 -44 4 q-19 4 -35 25 l-183 242 l125 112 q4 4 14 9 q10 6 30 6 l48 0 l0 59 l-266 0 l0 -59 l45 0 q10 0 15 -4 q4 -5 4 -8 q4 -7 -29 -37 q-32 -30 -143 -134 l0 489 l-198 -17 l0 -57 l67 0 q8 0 15 -5 q8 -6 8 -21 l0 -563 q-1 -23 -11 -31 q-10 -8 -18 -7 l-54 0 l0 -61 l267 0 Z" /><glyph glyph-name="" unicode="l" d="M304 0 l0 61 l-56 0 q-14 0 -22 9 q-8 8 -8 29 l0 663 l-198 -17 l0 -57 l66 0 q9 0 16 -5 q8 -6 8 -21 l0 -563 q-1 -23 -11 -31 q-10 -8 -18 -7 l-54 0 l0 -61 l277 0 Z" /><glyph glyph-name="" unicode="m" d="M308 0 l0 61 l-55 0 q-14 0 -22 9 q-8 8 -8 29 l0 226 q2 55 40 91 q37 37 90 38 q37 0 64 -20 q28 -20 29 -60 l0 -287 q0 -11 -8 -18 q-7 -8 -19 -8 l-48 0 l0 -61 l267 0 l0 61 l-58 0 q-12 1 -19 10 q-8 9 -8 19 l0 219 q1 60 37 101 q35 42 90 44 q37 0 65 -20 q28 -20 29 -60 l0 -287 q0 -11 -8 -18 q-8 -8 -20 -8 l-48 0 l0 -61 l267 0 l0 61 l-58 0 q-11 1 -18 10 q-8 9 -8 19 l0 308 q-6 66 -55 101 q-49 35 -111 35 q-62 -1 -102 -31 q-40 -31 -64 -77 q-16 53 -61 80 q-46 28 -100 28 q-60 0 -103 -29 q-43 -30 -73 -86 l11 52 l0 60 l-198 -17 l0 -57 l66 0 q8 0 16 -5 q7 -6 8 -21 l0 -332 q-1 -23 -11 -31 q-10 -8 -18 -7 l-55 0 l0 -61 l277 0 Z" /><glyph glyph-name="" unicode="n" d="M308 0 l0 61 l-55 0 q-14 0 -22 9 q-8 8 -8 29 l0 226 q2 55 43 91 q41 37 94 38 q37 0 65 -20 q28 -20 29 -60 l0 -287 q0 -11 -8 -18 q-8 -8 -20 -8 l-48 0 l0 -61 l267 0 l0 61 l-58 0 q-12 1 -19 10 q-8 9 -8 19 l0 308 q-3 66 -52 101 q-50 35 -113 35 q-61 0 -106 -29 q-46 -30 -77 -86 l11 52 l0 60 l-198 -17 l0 -57 l66 0 q8 0 16 -5 q7 -6 8 -21 l0 -332 q-1 -23 -11 -31 q-10 -8 -18 -7 l-55 0 l0 -61 l277 0 Z" /><glyph glyph-name="" unicode="o" d="M33 264 q0 -122 65 -199 q64 -77 190 -79 q124 2 194 76 q70 74 71 197 q-1 119 -69 195 q-67 76 -186 79 q-120 -2 -192 -76 q-71 -74 -73 -193 l0 0 ZM152 259 q-2 75 27 140 q29 65 115 69 q82 -4 112 -66 q30 -63 28 -136 q2 -79 -27 -146 q-30 -67 -117 -71 q-85 4 -113 69 q-27 66 -25 141 l0 0 Z" /><glyph glyph-name="" unicode="p" d="M303 -255 l0 61 l-63 0 q-15 0 -23 9 q-8 8 -8 29 l0 225 q25 -47 70 -64 q45 -17 100 -16 q115 4 167 83 q53 78 52 187 q0 113 -58 192 q-58 80 -178 83 q-58 -1 -100 -33 q-43 -33 -72 -84 l11 50 l0 67 l-186 -17 l0 -57 l65 0 q9 0 16 -5 q8 -6 8 -21 l0 -590 q-1 -23 -11 -31 q-10 -8 -18 -7 l-54 0 l0 -61 l282 0 ZM479 259 q2 -70 -22 -133 q-24 -64 -103 -68 q-66 2 -106 45 q-41 42 -42 107 l0 92 q2 63 42 113 q40 50 93 53 q84 -4 112 -70 q28 -65 26 -139 l0 0 Z" /><glyph glyph-name="" unicode="q" d="M390 -194 l-62 0 l0 -61 l280 0 l0 61 l-54 0 q-9 -1 -19 7 q-10 8 -11 31 l0 680 l-56 0 l-38 -74 q-26 43 -67 63 q-42 20 -91 20 q-122 -4 -181 -86 q-59 -82 -59 -197 q0 -108 55 -185 q56 -77 168 -80 q53 0 97 23 q44 23 68 69 l0 -233 q0 -21 -8 -29 q-8 -9 -22 -9 l0 0 ZM284 56 q-80 4 -107 64 q-28 59 -26 132 q-2 77 25 142 q28 66 113 70 q80 -4 109 -64 q30 -60 28 -133 q2 -77 -26 -142 q-29 -65 -116 -69 l0 0 Z" /><glyph glyph-name="" unicode="r" d="M29 457 l66 0 q8 0 16 -5 q7 -6 8 -21 l0 -332 q-1 -23 -11 -31 q-10 -8 -18 -7 l-55 0 l0 -61 l314 0 l0 61 l-92 0 q-14 0 -22 9 q-8 8 -8 29 l0 187 q2 65 50 125 q47 59 113 60 q-10 -11 -17 -25 q-8 -14 -8 -30 q0 -26 16 -41 q15 -15 41 -15 q36 0 54 21 q18 20 18 55 q-1 47 -29 71 q-28 25 -76 25 q-70 -2 -108 -44 q-38 -42 -65 -95 l11 57 l0 82 l-198 -18 l0 -57 Z" /><glyph glyph-name="" unicode="s" d="M106 44 q40 -31 82 -45 q42 -14 93 -14 q80 0 141 42 q61 42 64 128 q-1 53 -31 88 q-31 36 -84 49 l-178 43 q-24 5 -40 20 q-15 16 -16 41 q2 40 34 55 q31 16 66 15 q65 1 106 -27 q41 -28 55 -91 l56 0 l0 186 l-50 0 l-20 -48 q-34 26 -71 37 q-37 11 -80 11 q-75 1 -135 -37 q-60 -37 -63 -120 q1 -59 36 -92 q35 -34 91 -48 l156 -39 q26 -6 46 -20 q19 -15 20 -43 q-3 -46 -39 -64 q-37 -18 -76 -17 q-73 1 -119 39 q-45 38 -55 103 l-56 0 l0 -196 l54 0 l13 44 Z" /><glyph glyph-name="" unicode="t" d="M208 515 l0 204 l-74 0 q2 -103 -22 -153 q-25 -51 -100 -51 l0 -57 l88 0 l0 -350 q0 -37 3 -56 q4 -19 11 -30 q21 -35 95 -35 q36 0 64 5 q28 4 65 14 l0 61 q-24 -5 -42 -8 q-18 -2 -35 -2 q-29 -1 -41 9 q-12 10 -12 37 l0 355 l117 0 l0 57 l-117 0 Z" /><glyph glyph-name="" unicode="u" d="M16 460 l60 0 q9 0 16 -5 q8 -6 8 -21 l0 -316 q6 -66 55 -100 q49 -35 111 -35 q122 1 183 115 l-6 -53 l0 -45 l196 0 l0 59 l-69 0 q-9 0 -16 5 q-8 6 -8 21 l0 448 l-193 -17 l0 -57 l61 0 q8 0 16 -5 q7 -6 8 -21 l0 -241 q-2 -55 -43 -92 q-41 -37 -94 -38 q-37 0 -65 20 q-28 20 -29 61 l0 391 l-191 -17 l0 -57 Z" /><glyph glyph-name="" unicode="v" d="M233 -5 l99 0 l169 430 q3 9 11 20 q7 12 17 13 l51 0 l0 57 l-242 0 l0 -57 l73 0 q15 0 15 -16 q-1 -9 -37 -106 q-36 -96 -89 -229 q-59 159 -90 241 q-31 83 -31 92 q0 8 4 13 q4 5 12 5 l69 0 l0 57 l-275 0 l0 -57 l47 0 q16 -1 24 -11 q7 -10 8 -17 l165 -435 Z" /><glyph glyph-name="" unicode="w" d="M526 -5 l97 0 l155 430 q3 9 11 20 q8 12 18 13 l50 0 l0 57 l-227 0 l0 -57 l60 0 q15 0 15 -16 q1 -3 -25 -80 q-26 -77 -86 -255 q-78 218 -98 275 q-21 57 -18 58 q0 8 4 13 q5 5 13 5 l61 0 l0 57 l-254 0 l0 -57 l38 0 q16 -1 24 -11 q7 -10 8 -17 l17 -48 l-98 -273 q-68 199 -88 263 q-21 64 -19 68 q0 8 4 13 q4 5 12 5 l40 0 l0 57 l-246 0 l0 -57 l47 0 q16 -1 24 -11 q7 -10 8 -17 l151 -435 l96 0 l105 286 l101 -286 Z" /><glyph glyph-name="" unicode="x" d="M2 0 l240 0 l0 61 l-51 0 q-8 0 -13 4 q-5 4 -5 10 q-2 6 20 33 q21 27 84 103 q54 -66 78 -95 q24 -30 24 -38 q0 -8 -5 -12 q-6 -5 -15 -5 l-54 0 l0 -61 l285 0 l0 61 q-46 0 -62 6 q-16 7 -30 26 l-146 177 l132 164 q9 11 18 18 q9 7 20 7 l49 0 l0 56 l-233 0 l0 -56 l48 0 q6 0 10 -3 q3 -4 3 -10 q3 -4 -12 -23 q-15 -19 -80 -99 q-63 78 -78 97 q-15 19 -12 24 q0 7 5 10 q4 4 12 4 l43 0 l0 56 l-267 0 l0 -56 q27 1 49 -4 q22 -5 35 -21 l140 -174 l-146 -175 q-13 -16 -27 -20 q-14 -5 -59 -4 l0 -61 Z" /><glyph glyph-name="" unicode="y" d="M-11 -155 q2 -52 40 -81 q39 -29 88 -29 q49 1 86 25 q38 25 55 67 q93 236 152 386 q60 150 83 212 q3 9 11 20 q8 12 17 13 l53 0 l0 57 l-246 0 l0 -57 l74 0 q15 0 15 -16 q2 -1 -22 -66 q-25 -66 -97 -253 q-65 161 -95 235 q-29 74 -29 82 q0 8 4 13 q4 5 12 5 l65 0 l0 57 l-268 0 l0 -57 l40 0 q16 -1 24 -11 q7 -10 9 -17 l184 -440 l-48 -125 q-11 -31 -30 -50 q-20 -20 -54 -21 q-6 0 -13 2 q-7 2 -14 8 q17 8 26 21 q9 14 9 33 q-1 27 -19 44 q-17 16 -43 17 q-32 -1 -50 -22 q-19 -21 -19 -52 l0 0 Z" /><glyph glyph-name="" unicode="z" d="M32 61 l0 -61 l443 0 l0 217 l-56 0 q1 -52 -23 -101 q-24 -49 -83 -53 l-157 0 l319 394 l0 58 l-430 0 l0 -206 l58 0 q-1 49 21 96 q22 47 78 50 l150 0 l-320 -394 Z" /><glyph glyph-name="" unicode="«ç" d="M36 255 l115 -190 l83 0 l-95 190 l95 193 l-81 0 l-117 -193 ZM201 255 l115 -190 l83 0 l-95 190 l95 193 l-81 0 l-117 -193 Z" /><glyph glyph-name="" unicode="»è" d="M286 448 l-81 0 l95 -193 l-95 -190 l83 0 l115 190 l-117 193 ZM120 448 l-81 0 l95 -193 l-95 -190 l83 0 l115 190 l-117 193 Z" /><glyph glyph-name="" unicode="à" d="M546 63 q-11 -5 -23 -9 q-12 -4 -23 -4 q-19 0 -25 10 q-6 10 -6 32 l0 309 q-4 78 -67 107 q-64 30 -134 28 q-61 2 -128 -24 q-66 -26 -72 -99 q0 -33 17 -53 q18 -19 52 -20 q26 0 44 16 q17 16 18 45 q0 33 -31 49 q14 11 37 17 q23 6 49 6 q43 1 76 -21 q32 -21 34 -73 l0 -47 q-45 -6 -85 -15 q-41 -10 -83 -24 q-65 -21 -109 -61 q-44 -40 -46 -111 q2 -69 44 -103 q43 -35 109 -35 q52 0 102 23 q51 23 73 73 q2 -43 23 -68 q20 -25 68 -26 q21 0 42 4 q20 3 44 12 l0 62 ZM151 140 q11 73 96 103 q85 29 117 28 l0 -69 q-1 -62 -42 -99 q-40 -38 -102 -39 q-32 1 -50 22 q-19 22 -19 54 l0 0 ZM124 745 l153 -143 l73 0 q-1 1 -18 30 q-16 29 -66 113 l-142 0 Z" /><glyph glyph-name="" unicode="á" d="M546 63 q-11 -5 -23 -9 q-12 -4 -23 -4 q-19 0 -25 10 q-6 10 -6 32 l0 309 q-4 78 -67 107 q-64 30 -134 28 q-61 2 -128 -24 q-66 -26 -72 -99 q0 -33 17 -53 q18 -19 52 -20 q26 0 44 16 q17 16 18 45 q0 33 -31 49 q14 11 37 17 q23 6 49 6 q43 1 76 -21 q32 -21 34 -73 l0 -47 q-45 -6 -85 -15 q-41 -10 -83 -24 q-65 -21 -109 -61 q-44 -40 -46 -111 q2 -69 44 -103 q43 -35 109 -35 q52 0 102 23 q51 23 73 73 q2 -43 23 -68 q20 -25 68 -26 q21 0 42 4 q20 3 44 12 l0 62 ZM151 140 q11 73 96 103 q85 29 117 28 l0 -69 q-1 -62 -42 -99 q-40 -38 -102 -39 q-32 1 -50 22 q-19 22 -19 54 l0 0 ZM308 745 q-50 -84 -67 -113 q-17 -29 -18 -30 l73 0 l154 143 l-142 0 Z" /><glyph glyph-name="" unicode="â" d="M546 63 q-11 -5 -23 -9 q-12 -4 -23 -4 q-19 0 -25 10 q-6 10 -6 32 l0 309 q-4 78 -67 107 q-64 30 -134 28 q-61 2 -128 -24 q-66 -26 -72 -99 q0 -33 17 -53 q18 -19 52 -20 q26 0 44 16 q17 16 18 45 q0 33 -31 49 q14 11 37 17 q23 6 49 6 q43 1 76 -21 q32 -21 34 -73 l0 -47 q-45 -6 -85 -15 q-41 -10 -83 -24 q-65 -21 -109 -61 q-44 -40 -46 -111 q2 -69 44 -103 q43 -35 109 -35 q52 0 102 23 q51 23 73 73 q2 -43 23 -68 q20 -25 68 -26 q21 0 42 4 q20 3 44 12 l0 62 ZM151 140 q11 73 96 103 q85 29 117 28 l0 -69 q-1 -62 -42 -99 q-40 -38 -102 -39 q-32 1 -50 22 q-19 22 -19 54 l0 0 ZM215 745 l-104 -148 l77 0 l78 84 l83 -84 l94 0 l-108 148 l-120 0 Z" /><glyph glyph-name="" unicode="ç" d="M29 255 q1 -107 55 -179 q55 -73 156 -88 l-27 -86 l49 0 q18 0 32 -9 q14 -8 15 -27 q1 -15 -15 -30 q-15 -15 -54 -16 q-20 0 -50 6 q-10 -39 -12 -49 q-2 -9 -2 -8 q16 -5 35 -7 q18 -3 37 -3 q59 -1 106 25 q48 25 51 85 q-1 50 -32 65 q-31 15 -74 14 l12 39 q89 9 141 61 q52 52 53 138 l-71 0 q-1 -57 -37 -89 q-36 -32 -98 -33 q-83 3 -115 64 q-32 60 -31 135 q-2 76 30 139 q31 63 113 67 q20 1 45 -3 q25 -3 39 -18 q-19 -11 -28 -27 q-10 -16 -10 -36 q1 -30 20 -47 q20 -17 49 -17 q34 1 55 22 q21 21 22 55 q-4 72 -62 105 q-58 33 -123 33 q-127 -2 -200 -80 q-73 -77 -74 -201 l0 0 Z" /><glyph glyph-name="" unicode="è" d="M34 258 q0 -120 67 -196 q66 -76 197 -78 q113 5 174 67 q60 61 61 121 l-67 0 q2 -7 -29 -57 q-31 -51 -125 -58 q-66 -2 -110 41 q-45 42 -47 149 l384 0 q1 125 -57 205 q-58 80 -187 83 q-123 -3 -191 -80 q-69 -77 -70 -197 l0 0 ZM291 468 q68 -2 95 -47 q27 -46 26 -107 l-254 0 q0 63 34 108 q34 44 99 46 l0 0 ZM114 745 l154 -143 l73 0 q-1 1 -18 30 q-17 29 -67 113 l-142 0 Z" /><glyph glyph-name="" unicode="é" d="M34 258 q0 -120 67 -196 q66 -76 197 -78 q113 5 174 67 q60 61 61 121 l-67 0 q2 -7 -29 -57 q-31 -51 -125 -58 q-66 -2 -110 41 q-45 42 -47 149 l384 0 q1 125 -57 205 q-58 80 -187 83 q-123 -3 -191 -80 q-69 -77 -70 -197 l0 0 ZM291 468 q68 -2 95 -47 q27 -46 26 -107 l-254 0 q0 63 34 108 q34 44 99 46 l0 0 ZM321 745 l-84 -143 l72 0 l154 143 l-142 0 Z" /><glyph glyph-name="" unicode="ê" d="M34 258 q0 -120 67 -196 q66 -76 197 -78 q113 5 174 67 q60 61 61 121 l-67 0 q2 -7 -29 -57 q-31 -51 -125 -58 q-66 -2 -110 41 q-45 42 -47 149 l384 0 q1 125 -57 205 q-58 80 -187 83 q-123 -3 -191 -80 q-69 -77 -70 -197 l0 0 ZM291 468 q68 -2 95 -47 q27 -46 26 -107 l-254 0 q0 63 34 108 q34 44 99 46 l0 0 ZM232 745 l-104 -148 l77 0 l78 84 l83 -84 l94 0 l-108 148 l-120 0 Z" /><glyph glyph-name="" unicode="í" d="M308 0 l0 61 l-55 0 q-15 0 -23 9 q-8 8 -8 29 l0 435 l-192 -17 l0 -57 l61 0 q8 0 16 -5 q7 -6 8 -21 l0 -335 q-1 -23 -11 -31 q-11 -8 -19 -7 l-54 -3 l0 -58 l277 0 ZM173 745 q-50 -84 -67 -113 q-17 -29 -18 -30 l73 0 l154 143 l-142 0 Z" /><glyph glyph-name="" unicode="î" d="M308 0 l0 61 l-55 0 q-15 0 -23 9 q-8 8 -8 29 l0 435 l-192 -17 l0 -57 l61 0 q8 0 16 -5 q7 -6 8 -21 l0 -335 q-1 -23 -11 -31 q-11 -8 -19 -7 l-54 -3 l0 -58 l277 0 ZM103 745 l-104 -148 l77 0 l77 84 l84 -84 l94 0 l-109 148 l-119 0 Z" /><glyph glyph-name="" unicode="ñ" d="M308 0 l0 61 l-55 0 q-14 0 -22 9 q-8 8 -8 29 l0 226 q2 55 43 91 q41 37 94 38 q37 0 65 -20 q28 -20 29 -60 l0 -287 q0 -11 -8 -17 q-8 -7 -20 -9 l-48 0 l0 -61 l267 0 l0 61 l-58 0 q-12 1 -19 10 q-8 9 -8 19 l0 308 q-5 66 -54 101 q-49 35 -111 35 q-61 0 -106 -29 q-46 -30 -77 -86 l11 52 l0 60 l-198 -17 l0 -57 l66 0 q8 0 16 -5 q7 -6 8 -21 l0 -332 q-1 -23 -11 -31 q-10 -8 -18 -7 l-55 -3 l0 -58 l277 0 ZM136 614 q0 -4 0 -9 q1 -4 2 -6 l66 0 q-1 21 6 37 q7 16 30 17 q25 -3 86 -24 q61 -21 107 -24 q51 2 72 39 q21 36 21 80 l0 21 l-64 0 q0 -16 -4 -34 q-5 -18 -17 -20 q-43 3 -101 23 q-57 20 -108 23 q-53 -2 -75 -39 q-22 -37 -21 -84 l0 0 Z" /><glyph glyph-name="" unicode="ó" d="M33 264 q0 -122 65 -199 q64 -77 190 -79 q124 2 194 76 q70 74 71 197 q-1 119 -69 195 q-67 76 -186 79 q-120 -2 -192 -76 q-71 -74 -73 -193 l0 0 ZM152 259 q-2 75 27 140 q29 65 115 69 q82 -4 112 -66 q30 -63 28 -136 q2 -79 -27 -146 q-30 -67 -117 -71 q-85 4 -113 69 q-27 66 -25 141 l0 0 ZM321 745 l-84 -143 l72 0 l154 143 l-142 0 Z" /><glyph glyph-name="" unicode="ù" d="M16 460 l60 0 q9 0 16 -5 q8 -6 8 -21 l0 -316 q6 -66 55 -100 q49 -35 111 -35 q122 1 183 115 l-6 -53 l0 -45 l196 0 l0 59 l-69 0 q-9 0 -16 5 q-8 6 -8 21 l0 448 l-193 -17 l0 -57 l61 0 q8 0 16 -5 q7 -6 8 -21 l0 -241 q-2 -55 -43 -92 q-41 -37 -94 -38 q-37 0 -65 20 q-28 20 -29 61 l0 391 l-191 -17 l0 -57 ZM129 745 l154 -143 l72 0 q-1 1 -18 30 q-16 29 -66 113 l-142 0 Z" /><glyph glyph-name="" unicode="ú" d="M16 460 l60 0 q9 0 16 -5 q8 -6 8 -21 l0 -316 q6 -66 55 -100 q49 -35 111 -35 q122 1 183 115 l-6 -53 l0 -45 l196 0 l0 59 l-69 0 q-9 0 -16 5 q-8 6 -8 21 l0 448 l-193 -17 l0 -57 l61 0 q8 0 16 -5 q7 -6 8 -21 l0 -241 q-2 -55 -43 -92 q-41 -37 -94 -38 q-37 0 -65 20 q-28 20 -29 61 l0 391 l-191 -17 l0 -57 ZM337 745 q-50 -84 -67 -113 q-17 -29 -18 -30 l73 0 l153 143 l-141 0 Z" /><glyph glyph-name="" unicode="&#x391;" d="M-18 67 l0 -67 l255 0 l0 67 l-19 0 q-35 -1 -53 5 q-18 5 -18 25 q0 7 10 37 q11 30 31 91 l270 0 q31 -84 38 -104 q7 -21 6 -21 q0 -12 -6 -22 q-6 -10 -20 -11 l-62 0 l0 -67 l299 0 l0 67 l-16 0 q-20 -1 -40 4 q-20 5 -28 24 l-229 601 l-109 0 l-225 -591 q-11 -27 -30 -33 q-18 -6 -46 -5 l-8 0 ZM215 292 l97 256 l13 52 l11 -51 l95 -257 l-216 0 Z" /><glyph glyph-name="" unicode="&#x392;" d="M115 626 q15 0 25 -11 q10 -11 10 -26 l0 -485 q0 -15 -10 -26 q-10 -11 -25 -11 l-76 0 l0 -67 l463 0 q81 2 133 57 q53 54 55 135 q-2 81 -58 123 q-55 41 -136 47 q71 14 116 50 q45 36 46 111 q-1 83 -54 127 q-52 43 -139 43 l-426 0 l0 -67 l76 0 ZM267 326 l185 0 q53 -2 84 -42 q30 -40 31 -88 q-3 -85 -62 -109 q-59 -24 -143 -21 l-95 0 l0 260 ZM267 626 l179 0 q43 -2 67 -37 q25 -35 25 -75 q-1 -45 -30 -81 q-29 -36 -80 -38 l-161 0 l0 231 Z" /><glyph glyph-name="" unicode="&#x393;" d="M115 626 q15 0 25 -11 q10 -11 10 -26 l0 -485 q0 -15 -10 -26 q-10 -11 -25 -11 l-76 0 l0 -67 l345 0 l0 67 l-80 0 q-19 0 -29 8 q-10 7 -10 28 l0 523 l215 0 q75 -4 96 -65 q20 -60 21 -125 l62 0 l0 257 l-620 0 l0 -67 l76 0 Z" /><glyph glyph-name="" unicode="&#x395;" d="M499 626 q75 -4 96 -65 q21 -60 21 -125 l63 0 l0 257 l-640 0 l0 -67 l76 0 q15 0 25 -8 q10 -9 10 -29 l0 -485 q0 -15 -10 -26 q-10 -11 -25 -11 l-76 0 l0 -67 l650 0 l0 284 l-63 0 q0 -83 -21 -147 q-21 -64 -96 -68 l-244 0 l0 257 l109 0 q41 -2 53 -30 q12 -28 11 -65 l0 -39 l59 0 l0 331 l-58 0 l0 -68 q0 -24 -16 -41 q-16 -17 -45 -18 l-113 0 l0 230 l234 0 Z" /><glyph glyph-name="" unicode="&#x396;" d="M18 67 l0 -67 l582 0 l0 279 l-62 0 q-1 -86 -25 -148 q-24 -61 -118 -64 l-236 0 l437 557 l0 69 l-553 0 l0 -255 l60 0 q5 83 27 135 q22 51 98 53 l228 0 l-438 -559 Z" /><glyph glyph-name="" unicode="&#x397;" d="M571 626 q15 0 25 -11 q10 -11 10 -26 l0 -192 l-341 0 l0 193 q0 20 10 28 q10 8 29 8 l71 0 l0 67 l-336 0 l0 -67 l76 0 q15 0 25 -11 q10 -11 10 -26 l0 -485 q0 -15 -10 -26 q-10 -11 -25 -11 l-76 0 l0 -67 l336 0 l0 67 l-71 0 q-19 0 -29 8 q-10 7 -10 28 l0 225 l341 0 l0 -224 q0 -15 -10 -26 q-10 -11 -25 -11 l-75 0 l0 -67 l335 0 l0 67 l-70 0 q-19 0 -29 8 q-11 7 -11 28 l0 487 q0 20 11 28 q10 8 29 8 l70 0 l0 67 l-335 0 l0 -67 l75 0 Z" /><glyph glyph-name="" unicode="&#x399;" d="M115 626 q15 0 25 -11 q10 -11 10 -26 l0 -485 q0 -15 -10 -26 q-10 -11 -25 -11 l-76 0 l0 -67 l336 0 l0 67 l-71 0 q-19 0 -29 8 q-10 7 -10 28 l0 487 q0 20 10 28 q10 8 29 8 l71 0 l0 67 l-336 0 l0 -67 l76 0 Z" /><glyph glyph-name="" unicode="&#x39a;" d="M120 67 l-79 0 l0 -67 l335 0 l0 67 l-79 0 q-13 0 -22 9 q-9 9 -9 22 l0 169 l92 84 l171 -226 q7 -8 13 -19 q7 -11 7 -22 q0 -7 -6 -12 q-6 -5 -12 -5 l-71 0 l0 -67 l321 0 l0 64 q-20 -1 -47 4 q-27 5 -45 27 l-246 331 q122 111 171 156 q49 46 68 44 l66 0 l0 67 l-309 0 l0 -67 l72 0 q9 0 14 -5 q4 -5 4 -12 q0 -15 -68 -75 q-67 -60 -195 -180 l0 236 q0 20 10 28 q10 8 29 8 l71 0 l0 67 l-337 0 l0 -67 l76 0 q15 0 25 -11 q10 -11 10 -26 l0 -499 q-1 -10 -11 -16 q-10 -7 -19 -7 l0 0 Z" /><glyph glyph-name="" unicode="&#x39b;" d="M264 0 l0 67 l-34 0 q-28 -1 -45 4 q-17 5 -17 25 q9 30 77 217 q67 186 84 236 l16 52 l12 -51 q119 -317 145 -389 q26 -72 21 -62 q0 -12 -6 -22 q-6 -9 -20 -10 l-71 0 l0 -67 l308 0 l0 67 l-31 0 q-19 -1 -34 4 q-16 5 -25 23 l-223 604 l-112 0 q-13 -35 -77 -213 q-64 -178 -140 -381 q-11 -29 -34 -33 q-22 -5 -53 -4 l0 -67 l259 0 Z" /><glyph glyph-name="" unicode="&#x39c;" d="M721 67 l-75 0 l0 -67 l335 0 l0 67 l-70 0 q-19 0 -29 8 q-11 7 -11 28 l0 487 q0 20 11 28 q10 8 29 8 l70 0 l0 67 l-268 0 l-201 -531 q-207 531 -208 531 l-265 0 l0 -67 l75 0 q15 0 25 -11 q10 -11 10 -26 l0 -485 q0 -15 -10 -26 q-10 -11 -25 -11 l-75 0 l0 -67 l297 0 l0 67 l-70 0 q-19 0 -29 8 q-11 7 -11 28 l0 511 l232 -614 l64 0 l234 617 l0 -513 q0 -15 -10 -26 q-10 -11 -25 -11 l0 0 Z" /><glyph glyph-name="" unicode="&#x39d;" d="M692 589 q0 15 10 26 q9 11 25 11 l75 0 l0 67 l-296 0 l0 -67 l71 0 q18 0 29 -8 q10 -8 10 -28 l0 -373 l5 -61 l-13 34 l-341 503 l-228 0 l0 -67 l76 0 q15 0 25 -11 q10 -11 10 -26 l0 -485 q0 -15 -10 -26 q-10 -11 -25 -11 l-76 0 l0 -67 l297 0 l0 67 l-70 0 q-19 0 -29 8 q-11 7 -11 28 l0 429 l-8 56 l33 -68 l357 -520 l84 0 l0 589 Z" /><glyph glyph-name="" unicode="&#x39f;" d="M35 340 q3 -170 100 -266 q97 -95 245 -97 q171 3 263 106 q92 103 93 269 q-1 163 -92 262 q-90 99 -253 102 q-184 -4 -270 -109 q-87 -106 -86 -267 l0 0 ZM166 344 q-3 117 45 208 q48 90 178 95 q125 -5 170 -93 q44 -89 41 -205 q3 -118 -43 -207 q-46 -89 -174 -94 q-129 4 -174 90 q-46 86 -43 206 l0 0 Z" /><glyph glyph-name="" unicode="&#x3a0;" d="M606 104 q0 -15 -10 -26 q-10 -11 -25 -11 l-75 0 l0 -67 l335 0 l0 67 l-70 0 q-19 0 -29 8 q-11 7 -11 28 l0 487 q0 20 11 28 q10 8 29 8 l70 0 l0 67 l-792 0 l0 -67 l76 0 q15 0 25 -11 q10 -11 10 -26 l0 -485 q0 -15 -10 -26 q-10 -11 -25 -11 l-76 0 l0 -67 l336 0 l0 67 l-71 0 q-19 0 -29 8 q-10 7 -10 28 l0 485 q0 20 10 28 q10 8 29 8 l267 0 q15 0 25 -11 q10 -11 10 -26 l0 -483 Z" /><glyph glyph-name="" unicode="&#x3a1;" d="M39 67 l0 -67 l336 0 l0 67 l-70 0 q-19 0 -29 8 q-10 7 -10 28 l0 200 l214 0 q84 2 134 57 q49 55 50 137 q-2 98 -65 147 q-62 49 -159 49 l-401 0 l0 -67 l76 0 q15 0 25 -11 q10 -11 10 -26 l0 -485 q0 -15 -10 -26 q-10 -11 -25 -11 l-76 0 ZM266 626 l156 0 q54 -2 87 -38 q33 -37 34 -90 q-1 -55 -35 -91 q-35 -37 -91 -38 l-151 0 l0 257 Z" /><glyph glyph-name="" unicode="&#x3a4;" d="M641 693 l-621 0 l0 -257 l61 0 q5 83 27 135 q22 51 98 53 l66 0 l0 -520 q0 -15 -10 -26 q-10 -11 -25 -11 l-76 0 l0 -67 l336 0 l0 67 l-71 0 q-19 0 -29 8 q-10 7 -10 28 l0 521 l69 0 q76 -2 98 -53 q22 -52 27 -135 l60 0 l0 257 Z" /><glyph glyph-name="" unicode="&#x3a5;" d="M397 693 l0 -67 l29 0 q33 1 46 -4 q14 -5 13 -25 q2 -4 -30 -55 q-32 -51 -118 -196 q-64 107 -104 175 q-41 68 -42 73 q0 12 6 22 q7 9 20 10 l66 0 l0 67 l-308 0 l0 -67 l23 0 q20 1 35 -4 q16 -5 24 -23 l204 -334 l0 -161 q0 -15 -10 -26 q-9 -11 -25 -11 l-75 0 l0 -67 l336 0 l0 67 l-71 0 q-19 0 -29 8 q-11 7 -11 28 l0 167 q129 213 160 266 q32 52 32 53 q17 27 40 32 q23 6 54 5 l0 67 l-265 0 Z" /><glyph glyph-name="" unicode="&#x3a7;" d="M4 67 l0 -67 l282 0 l0 67 l-68 0 q-8 0 -15 4 q-7 4 -8 13 q0 6 3 13 q3 6 8 11 l131 172 l125 -173 q4 -5 5 -10 q2 -5 2 -12 q0 -8 -7 -13 q-6 -5 -16 -5 l-55 0 l0 -67 l316 0 l0 67 l-63 0 q-18 -3 -64 62 q-46 66 -178 240 q111 149 155 204 q44 56 75 53 l58 0 l0 67 l-284 0 l0 -67 l61 0 q8 0 12 -6 q4 -5 4 -16 q3 -6 -19 -37 q-23 -32 -106 -139 q-85 116 -104 143 q-20 27 -16 33 q0 7 4 14 q4 7 12 8 l63 0 l0 67 l-318 0 l0 -67 l57 0 q11 -1 23 -8 q12 -6 19 -15 l193 -264 q-125 -160 -164 -218 q-39 -57 -67 -54 l-56 0 Z" /><glyph glyph-name="" unicode="&#x3ba;" d="M200 416 q0 21 8 30 q8 8 22 8 l46 0 l0 61 l-267 0 l0 -61 l54 0 q8 1 18 -7 q10 -8 11 -31 l0 -317 q-1 -23 -11 -31 q-10 -8 -18 -7 l-54 0 l0 -61 l267 0 l0 61 l-46 0 q-14 0 -22 9 q-8 8 -8 29 l0 89 l80 73 q68 -83 101 -128 q33 -45 33 -58 q0 -6 -6 -10 q-6 -4 -12 -4 l-54 0 l0 -61 l277 0 l0 58 q-26 -1 -44 4 q-19 4 -35 25 l-183 242 l125 112 q4 4 14 9 q10 6 30 6 l48 0 l0 59 l-266 0 l0 -59 l45 0 q10 0 15 -4 q4 -5 4 -8 q4 -7 -29 -37 q-32 -30 -143 -134 l0 143 Z" /><glyph glyph-name="" unicode="&#x3bd;" d="M233 -5 l99 0 l169 430 q3 9 11 20 q7 12 17 13 l51 0 l0 57 l-242 0 l0 -57 l73 0 q15 0 15 -16 q-1 -9 -37 -106 q-36 -96 -89 -229 q-59 159 -90 241 q-31 83 -31 92 q0 8 4 13 q4 5 12 5 l69 0 l0 57 l-275 0 l0 -57 l47 0 q16 -1 24 -11 q7 -10 8 -17 l165 -435 Z" /><glyph glyph-name="" unicode="&#x405;" d="M129 50 q45 -41 91 -57 q46 -17 110 -16 q105 0 177 52 q71 52 74 163 q-1 71 -32 116 q-32 44 -82 59 l-260 81 q-30 11 -47 34 q-17 23 -17 50 q2 57 41 82 q40 25 92 24 q93 -2 146 -58 q54 -57 65 -149 l64 0 l0 262 l-56 0 l-31 -54 q-41 36 -88 53 q-47 17 -102 17 q-96 0 -165 -52 q-70 -52 -73 -152 q0 -50 31 -101 q31 -52 100 -75 l251 -74 q29 -9 46 -31 q16 -23 16 -53 q-3 -63 -52 -91 q-48 -28 -106 -28 q-99 1 -148 57 q-50 56 -71 148 l-62 0 l0 -265 l56 0 l32 58 Z" /><glyph glyph-name="" unicode="&#x406;" d="M115 626 q15 0 25 -11 q10 -11 10 -26 l0 -485 q0 -15 -10 -26 q-10 -11 -25 -11 l-76 0 l0 -67 l336 0 l0 67 l-71 0 q-19 0 -29 8 q-10 7 -10 28 l0 487 q0 20 10 28 q10 8 29 8 l71 0 l0 67 l-336 0 l0 -67 l76 0 Z" /><glyph glyph-name="" unicode="&#x408;" d="M221 626 q15 0 25 -11 q10 -11 10 -26 l0 -441 q0 -47 -27 -74 q-27 -27 -74 -28 q-19 0 -38 6 q-19 6 -31 22 q29 1 46 17 q18 17 18 47 q0 30 -19 48 q-19 18 -50 18 q-37 -1 -58 -26 q-22 -25 -23 -61 q3 -71 54 -106 q52 -36 117 -36 q92 1 145 53 q54 52 55 143 l0 419 q0 20 11 28 q10 8 29 8 l70 0 l0 67 l-335 0 l0 -67 l75 0 Z" /><glyph glyph-name="" unicode="&#x410;" d="M-18 67 l0 -67 l255 0 l0 67 l-19 0 q-35 -1 -53 5 q-18 5 -18 25 q0 7 10 37 q11 30 31 91 l270 0 q31 -84 38 -104 q7 -21 6 -21 q0 -12 -6 -22 q-6 -10 -20 -11 l-62 0 l0 -67 l299 0 l0 67 l-16 0 q-20 -1 -40 4 q-20 5 -28 24 l-229 601 l-109 0 l-225 -591 q-11 -27 -30 -33 q-18 -6 -46 -5 l-8 0 ZM215 292 l97 256 l13 52 l11 -51 l95 -257 l-216 0 Z" /><glyph glyph-name="" unicode="&#x411;" d="M266 626 l214 0 q75 -4 96 -65 q20 -60 21 -125 l62 0 l0 257 l-620 0 l0 -67 l76 0 q15 0 25 -11 q10 -11 10 -26 l0 -485 q0 -15 -10 -26 q-10 -11 -25 -11 l-76 0 l0 -67 l401 0 q97 0 159 49 q63 49 65 147 q-1 82 -50 137 q-50 55 -134 57 l-214 0 l0 236 ZM266 324 l151 0 q56 -1 91 -38 q34 -36 35 -91 q-1 -53 -34 -90 q-33 -36 -87 -38 l-156 0 l0 257 Z" /><glyph glyph-name="" unicode="&#x412;" d="M115 626 q15 0 25 -11 q10 -11 10 -26 l0 -485 q0 -15 -10 -26 q-10 -11 -25 -11 l-76 0 l0 -67 l463 0 q81 2 133 57 q53 54 55 135 q-2 81 -58 123 q-55 41 -136 47 q71 14 116 50 q45 36 46 111 q-1 83 -54 127 q-52 43 -139 43 l-426 0 l0 -67 l76 0 ZM267 326 l185 0 q53 -2 84 -42 q30 -40 31 -88 q-3 -85 -62 -109 q-59 -24 -143 -21 l-95 0 l0 260 ZM267 626 l179 0 q43 -2 67 -37 q25 -35 25 -75 q-1 -45 -30 -81 q-29 -36 -80 -38 l-161 0 l0 231 Z" /><glyph glyph-name="" unicode="&#x413;" d="M115 626 q15 0 25 -11 q10 -11 10 -26 l0 -485 q0 -15 -10 -26 q-10 -11 -25 -11 l-76 0 l0 -67 l345 0 l0 67 l-80 0 q-19 0 -29 8 q-10 7 -10 28 l0 523 l215 0 q75 -4 96 -65 q20 -60 21 -125 l62 0 l0 257 l-620 0 l0 -67 l76 0 Z" /><glyph glyph-name="" unicode="&#x415;" d="M499 626 q75 -4 96 -65 q21 -60 21 -125 l63 0 l0 257 l-640 0 l0 -67 l76 0 q15 0 25 -8 q10 -9 10 -29 l0 -485 q0 -15 -10 -26 q-10 -11 -25 -11 l-76 0 l0 -67 l650 0 l0 284 l-63 0 q0 -83 -21 -147 q-21 -64 -96 -68 l-244 0 l0 257 l109 0 q41 -2 53 -30 q12 -28 11 -65 l0 -39 l59 0 l0 331 l-58 0 l0 -68 q0 -24 -16 -41 q-16 -17 -45 -18 l-113 0 l0 230 l234 0 Z" /><glyph glyph-name="" unicode="&#x416;" d="M554 590 l0 -236 q-128 120 -195 180 q-67 60 -68 75 q0 7 5 12 q4 5 13 5 l72 0 l0 67 l-309 0 l0 -67 l66 0 q19 2 68 -44 q49 -45 171 -156 l-246 -331 q-18 -22 -45 -27 q-27 -5 -47 -4 l0 -64 l321 0 l0 67 l-71 0 q-6 0 -12 5 q-6 5 -6 12 q1 11 7 22 q7 11 13 19 l171 226 l92 -84 l0 -169 q0 -13 -9 -22 q-9 -9 -22 -9 l-79 0 l0 -67 l335 0 l0 67 l-79 0 q-13 0 -22 9 q-9 9 -9 22 l0 169 l92 84 l171 -226 q7 -8 13 -19 q7 -11 7 -22 q0 -7 -6 -12 q-6 -5 -12 -5 l-71 0 l0 -67 l321 0 l0 64 q-20 -1 -47 4 q-27 5 -45 27 l-246 331 q122 111 171 156 q49 46 68 44 l66 0 l0 67 l-309 0 l0 -67 l72 0 q9 0 14 -5 q4 -5 4 -12 q0 -15 -68 -75 q-67 -60 -195 -180 l0 236 q0 20 10 28 q10 8 29 8 l71 0 l0 67 l-337 0 l0 -67 l73 0 q19 0 29 -8 q10 -8 10 -28 l0 0 Z" /><glyph glyph-name="" unicode="&#x417;" d="M267 326 l185 0 q53 -2 84 -42 q30 -40 31 -88 q-3 -86 -64 -116 q-62 -30 -146 -28 q-107 3 -161 72 q-54 70 -54 174 l-73 0 q-2 -137 70 -228 q71 -91 234 -93 q179 4 250 66 q70 62 67 149 q-2 81 -58 123 q-55 41 -136 47 q71 14 116 50 q45 36 46 111 q5 88 -52 143 q-57 55 -243 53 q-58 -1 -110 -22 q-53 -21 -95 -61 l-32 65 l-59 0 l0 -265 l66 0 q23 117 85 162 q62 46 135 44 q121 2 155 -38 q34 -41 30 -90 q-1 -45 -30 -81 q-29 -36 -80 -38 l-161 0 l0 -69 Z" /><glyph glyph-name="" unicode="&#x418;" d="M38 0 l195 0 l357 520 l33 68 l-8 -56 l0 -429 q0 -21 -11 -28 q-10 -8 -29 -8 l-70 0 l0 -67 l297 0 l0 67 l-76 0 q-15 0 -25 11 q-10 11 -10 26 l0 485 q0 15 10 26 q10 11 25 11 l76 0 l0 67 l-228 0 l-341 -503 l-13 -34 l5 61 l0 373 q0 20 11 28 q10 8 28 8 l71 0 l0 67 l-296 0 l0 -67 l75 0 q16 0 25 -11 q10 -11 10 -26 l0 -485 q0 -15 -10 -26 q-10 -11 -25 -11 l-76 0 l0 -67 Z" /><glyph glyph-name="" unicode="&#x41a;" d="M120 67 l-79 0 l0 -67 l335 0 l0 67 l-79 0 q-13 0 -22 9 q-9 9 -9 22 l0 169 l92 84 l171 -226 q7 -8 13 -19 q7 -11 7 -22 q0 -7 -6 -12 q-6 -5 -12 -5 l-71 0 l0 -67 l321 0 l0 64 q-20 -1 -47 4 q-27 5 -45 27 l-246 331 q122 111 171 156 q49 46 68 44 l66 0 l0 67 l-309 0 l0 -67 l72 0 q9 0 14 -5 q4 -5 4 -12 q0 -15 -68 -75 q-67 -60 -195 -180 l0 236 q0 20 10 28 q10 8 29 8 l71 0 l0 67 l-337 0 l0 -67 l76 0 q15 0 25 -11 q10 -11 10 -26 l0 -499 q-1 -10 -11 -16 q-10 -7 -19 -7 l0 0 Z" /><glyph glyph-name="" unicode="&#x41b;" d="M264 0 l0 67 l-34 0 q-28 -1 -45 4 q-17 5 -17 25 q9 30 77 217 q67 186 84 236 l16 52 l12 -51 q119 -317 145 -389 q26 -72 21 -62 q0 -12 -6 -22 q-6 -9 -20 -10 l-71 0 l0 -67 l308 0 l0 67 l-31 0 q-19 -1 -34 4 q-16 5 -25 23 l-223 604 l-112 0 q-13 -35 -77 -213 q-64 -178 -140 -381 q-11 -29 -34 -33 q-22 -5 -53 -4 l0 -67 l259 0 Z" /><glyph glyph-name="" unicode="&#x41c;" d="M721 67 l-75 0 l0 -67 l335 0 l0 67 l-70 0 q-19 0 -29 8 q-11 7 -11 28 l0 487 q0 20 11 28 q10 8 29 8 l70 0 l0 67 l-268 0 l-201 -531 q-207 531 -208 531 l-265 0 l0 -67 l75 0 q15 0 25 -11 q10 -11 10 -26 l0 -485 q0 -15 -10 -26 q-10 -11 -25 -11 l-75 0 l0 -67 l297 0 l0 67 l-70 0 q-19 0 -29 8 q-11 7 -11 28 l0 511 l232 -614 l64 0 l234 617 l0 -513 q0 -15 -10 -26 q-10 -11 -25 -11 l0 0 Z" /><glyph glyph-name="" unicode="&#x41d;" d="M571 626 q15 0 25 -11 q10 -11 10 -26 l0 -192 l-341 0 l0 193 q0 20 10 28 q10 8 29 8 l71 0 l0 67 l-336 0 l0 -67 l76 0 q15 0 25 -11 q10 -11 10 -26 l0 -485 q0 -15 -10 -26 q-10 -11 -25 -11 l-76 0 l0 -67 l336 0 l0 67 l-71 0 q-19 0 -29 8 q-10 7 -10 28 l0 225 l341 0 l0 -224 q0 -15 -10 -26 q-10 -11 -25 -11 l-75 0 l0 -67 l335 0 l0 67 l-70 0 q-19 0 -29 8 q-11 7 -11 28 l0 487 q0 20 11 28 q10 8 29 8 l70 0 l0 67 l-335 0 l0 -67 l75 0 Z" /><glyph glyph-name="" unicode="&#x41e;" d="M35 340 q3 -170 100 -266 q97 -95 245 -97 q171 3 263 106 q92 103 93 269 q-1 163 -92 262 q-90 99 -253 102 q-184 -4 -270 -109 q-87 -106 -86 -267 l0 0 ZM166 344 q-3 117 45 208 q48 90 178 95 q125 -5 170 -93 q44 -89 41 -205 q3 -118 -43 -207 q-46 -89 -174 -94 q-129 4 -174 90 q-46 86 -43 206 l0 0 Z" /><glyph glyph-name="" unicode="&#x41f;" d="M606 104 q0 -15 -10 -26 q-10 -11 -25 -11 l-75 0 l0 -67 l335 0 l0 67 l-70 0 q-19 0 -29 8 q-11 7 -11 28 l0 487 q0 20 11 28 q10 8 29 8 l70 0 l0 67 l-792 0 l0 -67 l76 0 q15 0 25 -11 q10 -11 10 -26 l0 -485 q0 -15 -10 -26 q-10 -11 -25 -11 l-76 0 l0 -67 l336 0 l0 67 l-71 0 q-19 0 -29 8 q-10 7 -10 28 l0 485 q0 20 10 28 q10 8 29 8 l267 0 q15 0 25 -11 q10 -11 10 -26 l0 -483 Z" /><glyph glyph-name="" unicode="&#x420;" d="M39 67 l0 -67 l336 0 l0 67 l-70 0 q-19 0 -29 8 q-10 7 -10 28 l0 200 l214 0 q84 2 134 57 q49 55 50 137 q-2 98 -65 147 q-62 49 -159 49 l-401 0 l0 -67 l76 0 q15 0 25 -11 q10 -11 10 -26 l0 -485 q0 -15 -10 -26 q-10 -11 -25 -11 l-76 0 ZM266 626 l156 0 q54 -2 87 -38 q33 -37 34 -90 q-1 -55 -35 -91 q-35 -37 -91 -38 l-151 0 l0 257 Z" /><glyph glyph-name="" unicode="&#x421;" d="M35 342 q0 -161 83 -261 q83 -101 251 -104 q163 3 234 94 q72 90 70 227 l-73 0 q0 -104 -54 -174 q-54 -69 -161 -72 q-124 5 -172 91 q-47 86 -45 199 q-3 113 42 204 q44 91 167 96 q73 2 135 -44 q62 -45 85 -162 l66 0 l0 265 l-59 0 l-32 -65 q-42 40 -95 61 q-52 22 -110 22 q-159 -5 -245 -115 q-86 -110 -87 -262 l0 0 Z" /><glyph glyph-name="" unicode="&#x422;" d="M641 693 l-621 0 l0 -257 l61 0 q5 83 27 135 q22 51 98 53 l66 0 l0 -520 q0 -15 -10 -26 q-10 -11 -25 -11 l-76 0 l0 -67 l336 0 l0 67 l-71 0 q-19 0 -29 8 q-10 7 -10 28 l0 521 l69 0 q76 -2 98 -53 q22 -52 27 -135 l60 0 l0 257 Z" /><glyph glyph-name="" unicode="&#x425;" d="M4 67 l0 -67 l282 0 l0 67 l-68 0 q-8 0 -15 4 q-7 4 -8 13 q0 6 3 13 q3 6 8 11 l131 172 l125 -173 q4 -5 5 -10 q2 -5 2 -12 q0 -8 -7 -13 q-6 -5 -16 -5 l-55 0 l0 -67 l316 0 l0 67 l-63 0 q-18 -3 -64 62 q-46 66 -178 240 q111 149 155 204 q44 56 75 53 l58 0 l0 67 l-284 0 l0 -67 l61 0 q8 0 12 -6 q4 -5 4 -16 q3 -6 -19 -37 q-23 -32 -106 -139 q-85 116 -104 143 q-20 27 -16 33 q0 7 4 14 q4 7 12 8 l63 0 l0 67 l-318 0 l0 -67 l57 0 q11 -1 23 -8 q12 -6 19 -15 l193 -264 q-125 -160 -164 -218 q-39 -57 -67 -54 l-56 0 Z" /><glyph glyph-name="" unicode="&#x42c;" d="M115 626 q15 0 25 -11 q10 -11 10 -26 l0 -485 q0 -15 -10 -26 q-10 -11 -25 -11 l-76 0 l0 -67 l401 0 q97 0 159 49 q63 49 65 147 q-1 82 -50 137 q-50 55 -134 57 l-214 0 l0 200 q0 21 10 29 q10 7 29 7 l70 0 l0 67 l-336 0 l0 -67 l76 0 ZM266 324 l151 0 q56 -1 91 -38 q34 -36 35 -91 q-1 -53 -34 -90 q-33 -36 -87 -38 l-156 0 l0 257 Z" /><glyph glyph-name="" unicode="&#x42f;" d="M660 67 q-15 0 -25 11 q-10 11 -10 26 l0 485 q0 15 10 26 q10 11 25 11 l76 0 l0 67 l-437 0 q-88 0 -146 -44 q-57 -44 -59 -136 q1 -80 46 -120 q46 -41 123 -51 q-58 -8 -82 -34 q-24 -26 -30 -84 l-15 -126 q-1 -16 -8 -24 q-6 -8 -23 -8 q-17 0 -26 9 q-8 10 -8 27 l0 115 l-67 0 l0 -86 q-4 -52 16 -97 q20 -46 111 -49 q51 0 86 25 q35 25 42 77 l17 153 q3 32 25 54 q21 22 54 23 l154 0 l0 -214 q0 -21 -10 -28 q-10 -8 -29 -8 l-70 0 l0 -67 l336 0 l0 67 l-76 0 ZM509 385 l-177 0 q-50 2 -82 38 q-32 35 -33 85 q1 47 31 82 q30 34 80 36 l181 0 l0 -241 Z" /><glyph glyph-name="" unicode="&#x430;" d="M546 64 q-11 -5 -23 -9 q-12 -4 -23 -4 q-19 0 -25 10 q-6 10 -6 32 l0 306 q-4 78 -67 107 q-64 30 -134 28 q-61 2 -128 -24 q-66 -26 -72 -99 q0 -33 17 -53 q18 -19 52 -20 q26 0 44 16 q17 16 18 45 q0 33 -31 49 q14 11 37 17 q23 6 49 6 q43 1 76 -21 q32 -21 34 -73 l0 -44 q-45 -6 -85 -15 q-41 -10 -83 -24 q-65 -21 -109 -61 q-44 -40 -46 -111 q2 -69 44 -103 q43 -35 109 -35 q52 0 102 23 q51 23 73 73 q2 -43 23 -68 q20 -25 68 -26 q21 0 42 4 q20 3 44 12 l0 62 ZM151 141 q11 73 96 103 q85 29 117 28 l0 -69 q-1 -62 -42 -99 q-40 -38 -102 -39 q-32 1 -50 22 q-19 22 -19 54 l0 0 Z" /><glyph glyph-name="" unicode="&#x433;" d="M318 455 q56 -3 78 -50 q22 -47 21 -96 l58 0 l0 206 l-446 0 l0 -58 l66 0 q8 0 16 -5 q7 -6 8 -21 l0 -332 q-1 -23 -11 -31 q-10 -8 -18 -7 l-55 0 l0 -61 l314 0 l0 61 l-92 0 q-14 0 -22 9 q-8 8 -8 29 l0 356 l91 0 Z" /><glyph glyph-name="" unicode="&#x435;" d="M34 258 q0 -120 67 -195 q66 -76 197 -78 q113 5 174 67 q60 61 61 121 l-67 0 q2 -7 -29 -57 q-31 -51 -125 -58 q-66 -2 -110 40 q-45 42 -47 149 l384 0 q1 125 -57 205 q-58 79 -187 82 q-123 -3 -191 -79 q-69 -77 -70 -197 l0 0 ZM291 467 q68 -2 95 -47 q27 -45 26 -106 l-254 0 q0 63 34 107 q34 44 99 46 l0 0 Z" /><glyph glyph-name="" unicode="&#x438;" d="M16 460 l60 0 q9 0 16 -5 q8 -6 8 -21 l0 -316 q6 -66 55 -100 q49 -35 111 -35 q122 1 183 115 l-6 -53 l0 -45 l196 0 l0 59 l-69 0 q-9 0 -16 5 q-8 6 -8 21 l0 448 l-193 -17 l0 -57 l61 0 q8 0 16 -5 q7 -6 8 -21 l0 -241 q-2 -55 -43 -92 q-41 -37 -94 -38 q-37 0 -65 20 q-28 20 -29 61 l0 391 l-191 -17 l0 -57 Z" /><glyph glyph-name="" unicode="&#x439;" d="M16 460 l60 0 q9 0 16 -5 q8 -6 8 -21 l0 -316 q6 -66 55 -100 q49 -35 111 -35 q122 1 183 115 l-6 -53 l0 -45 l196 0 l0 59 l-69 0 q-9 0 -16 5 q-8 6 -8 21 l0 448 l-193 -17 l0 -57 l61 0 q8 0 16 -5 q7 -6 8 -21 l0 -241 q-2 -55 -43 -92 q-41 -37 -94 -38 q-37 0 -65 20 q-28 20 -29 61 l0 391 l-191 -17 l0 -57 ZM337 745 q-50 -84 -67 -113 q-17 -29 -18 -30 l73 0 l153 143 l-141 0 Z" /><glyph glyph-name="" unicode="&#x43a;" d="M200 416 q0 21 8 30 q8 8 22 8 l46 0 l0 61 l-267 0 l0 -61 l54 0 q8 1 18 -7 q10 -8 11 -31 l0 -317 q-1 -23 -11 -31 q-10 -8 -18 -7 l-54 0 l0 -61 l267 0 l0 61 l-46 0 q-14 0 -22 9 q-8 8 -8 29 l0 89 l80 73 q68 -83 101 -128 q33 -45 33 -58 q0 -6 -6 -10 q-6 -4 -12 -4 l-54 0 l0 -61 l277 0 l0 58 q-26 -1 -44 4 q-19 4 -35 25 l-183 242 l125 112 q4 4 14 9 q10 6 30 6 l48 0 l0 59 l-266 0 l0 -59 l45 0 q10 0 15 -4 q4 -5 4 -8 q4 -7 -29 -37 q-32 -30 -143 -134 l0 143 Z" /><glyph glyph-name="" unicode="&#x43e;" d="M33 264 q0 -122 65 -199 q64 -77 190 -79 q124 2 194 76 q70 74 71 197 q-1 119 -69 195 q-67 76 -186 79 q-120 -2 -192 -76 q-71 -74 -73 -193 l0 0 ZM152 259 q-2 75 27 140 q29 65 115 69 q82 -4 112 -66 q30 -63 28 -136 q2 -79 -27 -146 q-30 -67 -117 -71 q-85 4 -113 69 q-27 66 -25 141 l0 0 Z" /><glyph glyph-name="" unicode="&#x43f;" d="M308 0 l0 61 l-55 0 q-14 0 -22 9 q-8 8 -8 29 l0 226 q2 55 43 91 q41 37 94 38 q37 0 65 -20 q28 -20 29 -60 l0 -287 q0 -11 -8 -18 q-8 -8 -20 -8 l-48 0 l0 -61 l267 0 l0 61 l-58 0 q-12 1 -19 10 q-8 9 -8 19 l0 308 q-3 66 -52 101 q-50 35 -113 35 q-61 0 -106 -29 q-46 -30 -77 -86 l11 52 l0 60 l-198 -17 l0 -57 l66 0 q8 0 16 -5 q7 -6 8 -21 l0 -332 q-1 -23 -11 -31 q-10 -8 -18 -7 l-55 0 l0 -61 l277 0 Z" /><glyph glyph-name="" unicode="&#x440;" d="M303 -255 l0 61 l-63 0 q-15 0 -23 9 q-8 8 -8 29 l0 225 q25 -47 70 -64 q45 -17 100 -16 q115 4 167 83 q53 78 52 187 q0 113 -58 192 q-58 80 -178 83 q-58 -1 -100 -33 q-43 -33 -72 -84 l11 50 l0 67 l-186 -17 l0 -57 l65 0 q9 0 16 -5 q8 -6 8 -21 l0 -590 q-1 -23 -11 -31 q-10 -8 -18 -7 l-54 0 l0 -61 l282 0 ZM479 259 q2 -70 -22 -133 q-24 -64 -103 -68 q-66 2 -106 45 q-41 42 -42 107 l0 92 q2 63 42 113 q40 50 93 53 q84 -4 112 -70 q28 -65 26 -139 l0 0 Z" /><glyph glyph-name="" unicode="&#x441;" d="M29 255 q1 -117 66 -191 q65 -75 185 -77 q102 1 163 54 q61 53 62 147 l-71 0 q-1 -57 -37 -89 q-36 -32 -98 -33 q-83 3 -115 63 q-32 59 -31 134 q-2 76 30 138 q31 61 113 65 q20 1 45 -3 q25 -3 39 -18 q-19 -11 -28 -27 q-10 -16 -10 -36 q1 -30 20 -47 q20 -17 49 -17 q34 1 55 22 q21 21 22 55 q-4 72 -62 105 q-58 33 -123 33 q-127 -2 -200 -78 q-73 -76 -74 -200 l0 0 Z" /><glyph glyph-name="" unicode="&#x442;" d="M308 0 l0 61 l-55 0 q-14 0 -22 9 q-8 8 -8 29 l0 226 q2 55 40 91 q37 37 90 38 q37 0 64 -20 q28 -20 29 -60 l0 -287 q0 -11 -8 -18 q-7 -8 -19 -8 l-48 0 l0 -61 l267 0 l0 61 l-58 0 q-12 1 -19 10 q-8 9 -8 19 l0 219 q1 60 37 101 q35 42 90 44 q37 0 65 -20 q28 -20 29 -60 l0 -287 q0 -11 -8 -18 q-8 -8 -20 -8 l-48 0 l0 -61 l267 0 l0 61 l-58 0 q-11 1 -18 10 q-8 9 -8 19 l0 308 q-6 66 -55 101 q-49 35 -111 35 q-62 -1 -102 -31 q-40 -31 -64 -77 q-16 53 -61 80 q-46 28 -100 28 q-60 0 -103 -29 q-43 -30 -73 -86 l11 52 l0 60 l-198 -17 l0 -57 l66 0 q8 0 16 -5 q7 -6 8 -21 l0 -332 q-1 -23 -11 -31 q-10 -8 -18 -7 l-55 0 l0 -61 l277 0 Z" /><glyph glyph-name="" unicode="&#x443;" d="M-11 -155 q2 -52 40 -81 q39 -29 88 -29 q49 1 86 25 q38 25 55 67 q93 236 152 386 q60 150 83 212 q3 9 11 20 q8 12 17 13 l53 0 l0 57 l-246 0 l0 -57 l74 0 q15 0 15 -16 q2 -1 -22 -66 q-25 -66 -97 -253 q-65 161 -95 235 q-29 74 -29 82 q0 8 4 13 q4 5 12 5 l65 0 l0 57 l-268 0 l0 -57 l40 0 q16 -1 24 -11 q7 -10 9 -17 l184 -440 l-48 -125 q-11 -31 -30 -50 q-20 -20 -54 -21 q-6 0 -13 2 q-7 2 -14 8 q17 8 26 21 q9 14 9 33 q-1 27 -19 44 q-17 16 -43 17 q-32 -1 -50 -22 q-19 -21 -19 -52 l0 0 Z" /><glyph glyph-name="" unicode="&#x445;" d="M2 0 l240 0 l0 61 l-51 0 q-8 0 -13 4 q-5 4 -5 10 q-2 6 20 33 q21 27 84 103 q54 -66 78 -95 q24 -30 24 -38 q0 -8 -5 -12 q-6 -5 -15 -5 l-54 0 l0 -61 l285 0 l0 61 q-46 0 -62 6 q-16 7 -30 26 l-146 177 l132 164 q9 11 18 18 q9 7 20 7 l49 0 l0 56 l-233 0 l0 -56 l48 0 q6 0 10 -3 q3 -4 3 -10 q3 -4 -12 -23 q-15 -19 -80 -99 q-63 78 -78 97 q-15 19 -12 24 q0 7 5 10 q4 4 12 4 l43 0 l0 56 l-267 0 l0 -56 q27 1 49 -4 q22 -5 35 -21 l140 -174 l-146 -175 q-13 -16 -27 -20 q-14 -5 -59 -4 l0 -61 Z" /><glyph glyph-name="" unicode="&#x455;" d="M106 44 q40 -31 82 -45 q42 -14 93 -14 q80 0 141 42 q61 42 64 128 q-1 53 -31 88 q-31 36 -84 49 l-178 43 q-24 5 -40 20 q-15 16 -16 41 q2 40 34 55 q31 16 66 15 q65 1 106 -27 q41 -28 55 -91 l56 0 l0 186 l-50 0 l-20 -48 q-34 26 -71 37 q-37 11 -80 11 q-75 1 -135 -37 q-60 -37 -63 -120 q1 -59 36 -92 q35 -34 91 -48 l156 -39 q26 -6 46 -20 q19 -15 20 -43 q-3 -46 -39 -64 q-37 -18 -76 -17 q-73 1 -119 39 q-45 38 -55 103 l-56 0 l0 -196 l54 0 l13 44 Z" /><glyph glyph-name="" unicode="&#x456;" d="M92 667 q1 -28 19 -47 q19 -18 47 -19 q29 1 50 20 q20 18 21 49 q-1 29 -20 48 q-20 20 -48 21 q-31 -1 -49 -22 q-19 -21 -20 -50 l0 0 ZM308 0 l0 61 l-55 0 q-15 0 -23 9 q-8 8 -8 29 l0 435 l-192 -17 l0 -57 l61 0 q8 0 16 -5 q7 -6 8 -21 l0 -335 q-1 -23 -11 -31 q-11 -8 -19 -7 l-54 0 l0 -61 l277 0 Z" /><glyph glyph-name="" unicode="&#x458;" d="M15 460 l66 0 q8 0 16 -5 q7 -6 8 -21 l0 -565 q0 -34 -17 -56 q-17 -22 -52 -23 q-10 0 -20 2 q-11 3 -18 10 q19 6 29 19 q11 13 11 35 q0 27 -16 42 q-15 16 -40 16 q-33 -1 -51 -22 q-18 -22 -18 -52 q2 -56 44 -83 q41 -27 94 -27 q68 1 115 38 q46 37 48 105 l0 661 l-199 -17 l0 -57 ZM82 665 q1 -28 20 -47 q18 -18 46 -19 q29 1 50 20 q20 18 21 49 q-1 29 -20 49 q-19 19 -48 20 q-30 -1 -49 -22 q-19 -21 -20 -50 l0 0 Z" /><glyph glyph-name="" unicode="&#x4ae;" d="M397 693 l0 -67 l29 0 q33 1 46 -4 q14 -5 13 -25 q2 -4 -30 -55 q-32 -51 -118 -196 q-64 107 -104 175 q-41 68 -42 73 q0 12 6 22 q7 9 20 10 l66 0 l0 67 l-308 0 l0 -67 l23 0 q20 1 35 -4 q16 -5 24 -23 l204 -334 l0 -161 q0 -15 -10 -26 q-9 -11 -25 -11 l-75 0 l0 -67 l336 0 l0 67 l-71 0 q-19 0 -29 8 q-11 7 -11 28 l0 167 q129 213 160 266 q32 52 32 53 q17 27 40 32 q23 6 54 5 l0 67 l-265 0 Z" /><glyph glyph-name="" unicode="ô&#x2018;" d="M120 486 q31 1 51 20 q19 18 20 49 q0 27 -16 46 q-16 18 -41 19 q-5 0 -11 -1 q-6 -1 -11 -3 q1 36 24 60 q23 24 53 25 l0 46 q-67 -2 -104 -49 q-37 -47 -38 -112 q1 -50 21 -75 q21 -25 52 -25 l0 0 Z" /><glyph glyph-name="" unicode="õ&#x2019;" d="M122 745 q-30 -1 -50 -19 q-20 -19 -21 -50 q0 -27 16 -46 q16 -18 41 -19 q11 0 23 4 q-1 -35 -24 -60 q-23 -24 -54 -25 l0 -46 q67 2 104 49 q37 47 38 112 q-1 50 -21 75 q-20 25 -52 25 l0 0 Z" /><glyph glyph-name="" unicode="ò&#x201c;" d="M306 486 q31 1 51 20 q19 18 20 49 q0 27 -16 46 q-16 18 -41 19 q-5 0 -11 -1 q-6 -1 -11 -3 q1 36 24 60 q23 24 53 25 l0 46 q-67 -2 -103 -49 q-37 -47 -38 -112 q1 -50 21 -75 q20 -25 51 -25 l0 0 ZM113 486 q31 1 51 20 q19 18 20 49 q0 27 -16 46 q-16 18 -41 19 q-5 0 -11 -1 q-6 -1 -11 -3 q1 36 24 60 q23 24 53 25 l0 46 q-67 -2 -104 -49 q-37 -47 -38 -112 q1 -50 21 -75 q21 -25 52 -25 l0 0 Z" /><glyph glyph-name="" unicode="ó&#x201d;" d="M122 745 q-30 -1 -50 -19 q-20 -19 -21 -50 q0 -27 16 -46 q16 -18 41 -19 q11 0 23 4 q-1 -35 -24 -60 q-23 -24 -54 -25 l0 -46 q67 2 104 49 q37 47 38 112 q-1 50 -21 75 q-20 25 -52 25 l0 0 ZM315 745 q-30 -1 -50 -19 q-19 -19 -20 -50 q0 -27 16 -46 q16 -18 41 -19 q5 0 10 1 q6 1 12 3 q-1 -35 -24 -60 q-23 -24 -54 -25 l0 -46 q67 2 104 49 q37 47 38 112 q-1 50 -21 75 q-20 25 -52 25 l0 0 Z" /><glyph glyph-name="" unicode="é&#x2026;" d="M70 58 q1 -29 21 -49 q21 -20 50 -21 q29 1 49 21 q20 21 21 52 q-1 28 -21 48 q-20 19 -49 20 q-29 -1 -50 -21 q-20 -20 -21 -50 l0 0 ZM354 58 q1 -29 21 -49 q20 -20 49 -21 q29 1 49 21 q20 20 21 49 q-1 30 -21 50 q-20 20 -49 21 q-29 -1 -49 -21 q-20 -20 -21 -50 l0 0 ZM637 58 q1 -29 21 -49 q20 -20 50 -21 q29 1 49 21 q20 20 21 49 q-1 30 -21 50 q-20 20 -49 21 q-30 -1 -50 -21 q-20 -20 -21 -50 l0 0 Z" /><glyph glyph-name="" unicode="ú&#x2044;" d="M438 707 l-432 -722 l71 0 l430 722 l-69 0 Z" /><glyph glyph-name="" unicode="&#x2074;" d="M213 392 l-45 0 l0 -42 l198 0 l0 42 l-39 0 q-11 1 -18 5 q-7 5 -7 17 l0 47 l76 0 l0 50 l-76 0 l0 242 l-65 0 l-187 -238 l0 -54 l185 0 l0 -46 q0 -10 -6 -16 q-7 -7 -16 -7 l0 0 ZM235 679 l0 -168 l-131 0 l131 168 Z" /><glyph glyph-name="" unicode="&#x2081;" d="M122 -132 l-72 0 l0 -43 l272 0 l0 43 l-56 0 q-19 2 -29 9 q-11 7 -11 27 l0 324 l-52 0 q-15 -45 -54 -58 q-39 -12 -63 -11 l0 -41 q37 0 55 3 q18 4 38 12 l0 -228 q0 -15 -6 -26 q-7 -11 -22 -11 l0 0 Z" /><glyph glyph-name="" unicode="&#x2154;" d="M638 707 l-432 -722 l71 0 l430 722 l-69 0 ZM533 90 q3 -51 48 -74 q45 -24 92 -24 q64 0 111 28 q47 29 49 91 q0 49 -30 76 q-29 26 -81 30 q36 3 68 24 q32 20 34 70 q-3 55 -47 76 q-45 20 -102 19 q-44 0 -86 -20 q-41 -20 -44 -65 q1 -26 14 -37 q13 -11 31 -11 q17 0 29 10 q12 10 12 30 q0 15 -5 21 q-6 7 -17 10 q13 11 27 15 q13 4 29 4 q32 1 53 -12 q21 -12 22 -47 q-2 -47 -36 -57 q-34 -11 -77 -9 l0 -44 q49 2 84 -11 q35 -14 37 -68 q0 -40 -23 -59 q-22 -18 -60 -18 q-17 -1 -37 4 q-20 4 -38 21 q15 4 24 12 q9 9 9 24 q-1 24 -13 33 q-13 9 -31 9 q-22 -1 -34 -15 q-12 -15 -12 -36 l0 0 ZM316 436 l0 -35 q0 -13 -8 -22 q-7 -10 -20 -11 q-27 1 -60 10 q-34 9 -64 10 q-26 -1 -40 -13 q-14 -13 -22 -26 q7 53 65 80 q59 27 100 48 q35 22 60 48 q26 26 27 68 q-2 57 -44 82 q-42 25 -100 25 q-49 1 -96 -20 q-47 -21 -50 -76 q0 -21 12 -34 q11 -13 33 -13 q18 0 29 11 q12 10 12 27 q0 15 -7 21 q-8 6 -23 10 q16 20 35 25 q18 5 38 4 q33 -1 53 -18 q20 -18 20 -46 q0 -19 -12 -38 q-12 -20 -33 -34 l-104 -66 q-38 -24 -53 -62 q-15 -38 -14 -97 l47 0 q-1 18 5 30 q5 12 25 13 q29 -3 76 -24 q47 -22 81 -25 q37 1 57 24 q21 22 21 59 l0 65 l-46 0 Z" /><glyph glyph-name="" unicode="&#xf031;" d="M173 67 l-123 0 l0 -67 l404 0 l0 67 l-99 0 q-18 2 -28 9 q-11 7 -11 27 l0 465 l-79 0 q-21 -60 -77 -87 q-56 -28 -117 -28 l0 -61 q40 0 84 4 q43 4 81 12 l0 -304 q0 -15 -10 -26 q-9 -11 -25 -11 l0 0 Z" /><glyph glyph-name="" unicode="&#xf061;" d="M218 0 l0 62 l-24 0 q-22 -1 -35 3 q-14 4 -14 20 q-1 0 5 16 q5 16 25 72 l202 0 q22 -60 27 -73 q4 -14 3 -13 q0 -9 -5 -17 q-5 -8 -16 -8 l-54 0 l0 -62 l261 0 l0 62 l-27 0 q-16 -1 -28 3 q-13 4 -19 19 l-176 473 l-104 0 q-3 -9 -54 -153 q-52 -145 -115 -313 q-9 -23 -29 -26 q-20 -4 -44 -3 l0 -62 l221 0 ZM270 439 q1 8 3 19 q1 10 2 11 l3 -30 q25 -66 44 -116 q18 -50 31 -87 l-155 0 q13 37 30 87 q18 50 42 116 l0 0 Z" /><glyph glyph-name="" unicode="&#xf062;" d="M99 490 q13 0 21 -8 q8 -9 8 -21 l0 -370 q0 -12 -8 -20 q-8 -9 -21 -9 l-60 0 l0 -62 l382 0 q64 2 106 46 q42 43 43 108 q-2 64 -46 97 q-44 33 -108 38 q56 11 92 40 q36 28 37 88 q-1 66 -42 101 q-42 34 -111 34 l-353 0 l0 -62 l60 0 ZM234 257 l135 0 q42 -2 66 -32 q24 -31 25 -69 q-2 -67 -50 -82 q-47 -16 -113 -13 l-63 0 l0 196 ZM234 489 l129 0 q35 -1 54 -25 q20 -24 20 -55 q0 -36 -24 -63 q-24 -27 -65 -28 l-114 0 l0 171 Z" /><glyph glyph-name="" unicode="&#xf063;" d="M35 266 q0 -128 66 -207 q65 -80 198 -82 q137 3 196 74 q59 72 58 180 l-70 0 q0 -82 -43 -131 q-43 -50 -128 -51 q-89 3 -125 66 q-35 63 -34 151 q-2 88 31 157 q33 68 121 72 q58 2 105 -31 q48 -34 70 -124 l65 0 l0 210 l-53 0 l-25 -51 q-35 30 -79 48 q-44 18 -90 18 q-126 -4 -194 -91 q-68 -88 -69 -208 l0 0 Z" /><glyph glyph-name="" unicode="&#xf064;" d="M99 490 q13 0 21 -8 q8 -9 8 -21 l0 -370 q0 -12 -8 -20 q-8 -9 -21 -9 l-60 0 l0 -62 l342 0 q120 3 186 84 q67 81 68 207 q-2 104 -68 181 q-67 76 -173 80 l-355 0 l0 -62 l60 0 ZM234 490 l125 0 q75 -3 116 -59 q41 -56 42 -134 q3 -100 -33 -166 q-37 -66 -147 -69 l-103 0 l0 428 Z" /><glyph glyph-name="" unicode="&#xf065;" d="M397 489 q60 -3 77 -47 q16 -44 17 -94 l58 0 l0 204 l-510 0 l0 -62 l60 0 q13 0 21 -7 q8 -7 8 -23 l0 -369 q0 -12 -8 -20 q-8 -9 -21 -9 l-60 0 l0 -62 l518 0 l0 226 l-59 0 q0 -65 -16 -113 q-17 -48 -77 -50 l-169 0 l0 194 l59 0 q33 -1 42 -24 q10 -22 9 -52 l0 -27 l58 0 l0 263 l-57 0 l0 -52 q0 -19 -13 -33 q-13 -13 -36 -14 l-62 0 l0 171 l161 0 Z" /><glyph glyph-name="" unicode="&#xf066;" d="M99 490 q13 0 21 -8 q8 -9 8 -21 l0 -371 q0 -12 -8 -20 q-8 -9 -21 -9 l-60 0 l0 -61 l293 0 l0 61 l-65 0 q-14 1 -23 7 q-8 5 -8 21 l0 168 l43 0 q33 -1 43 -24 q9 -22 8 -52 l0 -27 l58 0 l0 263 l-57 0 l0 -51 q0 -19 -13 -33 q-13 -14 -36 -15 l-46 0 l0 171 l146 0 q60 -3 77 -47 q16 -44 16 -94 l57 0 l0 204 l-493 0 l0 -62 l60 0 Z" /><glyph glyph-name="" unicode="&#xf067;" d="M409 214 q12 0 20 -8 q8 -9 8 -21 l0 -48 q-3 -45 -44 -66 q-42 -22 -84 -22 q-87 3 -122 66 q-35 63 -34 156 q-2 88 31 154 q32 67 118 70 q57 2 105 -28 q48 -30 73 -122 l65 0 l0 207 l-54 0 l-23 -52 q-35 30 -81 49 q-46 18 -92 18 q-125 -4 -192 -91 q-67 -86 -68 -205 q0 -132 65 -212 q65 -80 196 -82 q57 0 100 16 q43 15 71 43 l17 -42 l61 0 l0 192 q0 16 8 22 q9 5 23 6 l39 0 l0 64 l-262 0 l0 -64 l56 0 Z" /><glyph glyph-name="" unicode="&#xf068;" d="M704 490 l0 62 l-287 0 l0 -62 l53 0 q15 0 25 -10 q10 -11 10 -26 l0 -136 l-271 0 l0 136 q0 20 11 28 q10 7 29 8 l52 0 l0 62 l-287 0 l0 -62 l53 0 q15 0 25 -10 q10 -11 10 -26 l0 -356 q0 -15 -10 -25 q-10 -11 -25 -11 l-53 0 l0 -62 l287 0 l0 62 l-52 0 q-19 1 -29 8 q-11 8 -11 28 l0 157 l271 0 l0 -157 q0 -15 -10 -25 q-10 -11 -25 -11 l-53 0 l0 -62 l287 0 l0 62 l-52 0 q-19 1 -29 8 q-11 8 -11 28 l0 356 q0 20 11 28 q10 7 29 8 l52 0 Z" /><glyph glyph-name="" unicode="&#xf069;" d="M326 490 l0 62 l-287 0 l0 -62 l53 0 q15 0 25 -10 q10 -11 10 -26 l0 -356 q0 -15 -10 -25 q-10 -11 -25 -11 l-53 0 l0 -62 l287 0 l0 62 l-52 0 q-19 1 -29 8 q-11 8 -11 28 l0 356 q0 20 11 28 q10 7 29 8 l52 0 Z" /><glyph glyph-name="" unicode="&#xf06a;" d="M184 490 q13 0 20 -8 q8 -9 8 -21 l0 -347 q0 -32 -21 -49 q-21 -16 -60 -16 q-15 0 -30 5 q-15 4 -25 17 q23 1 37 13 q14 11 14 35 q0 18 -15 29 q-16 11 -40 11 q-30 -1 -51 -21 q-20 -20 -21 -49 q2 -56 46 -85 q45 -29 113 -29 q74 1 117 43 q43 41 44 114 l0 330 q0 16 8 22 q8 6 24 6 l52 0 l0 62 l-280 0 l0 -62 l60 0 Z" /><glyph glyph-name="" unicode="&#xf06b;" d="M104 62 l-63 0 l0 -62 l282 0 l0 62 l-64 0 q-10 0 -17 7 q-8 7 -8 17 l0 119 l74 67 l124 -164 q6 -6 11 -15 q5 -9 5 -18 q0 -5 -5 -9 q-4 -4 -10 -4 l-44 0 l0 -62 l255 0 l0 60 q-15 -1 -37 3 q-21 4 -35 21 l-189 255 q96 88 131 121 q35 32 50 30 l55 0 l0 62 l-247 0 l0 -62 l43 0 q7 0 10 -4 q3 -4 3 -9 q1 -11 -46 -51 q-47 -41 -148 -136 l0 172 q0 16 9 22 q8 5 23 6 l57 0 l0 62 l-284 0 l0 -62 l60 0 q13 0 21 -8 q8 -9 8 -21 l0 -381 q-1 -8 -9 -13 q-8 -5 -15 -5 l0 0 Z" /><glyph glyph-name="" unicode="&#xf06c;" d="M39 61 l0 -61 l487 0 l0 226 l-56 0 q0 -65 -16 -113 q-17 -48 -77 -50 l-143 0 l0 400 q0 16 9 22 q8 5 23 6 l62 0 l0 61 l-289 0 l0 -61 l58 0 q13 0 21 -9 q8 -8 8 -20 l0 -372 q0 -12 -8 -20 q-8 -9 -21 -9 l-58 0 Z" /><glyph glyph-name="" unicode="&#xf06d;" d="M834 552 l-245 0 l-149 -423 l-158 423 l-243 0 l0 -62 l60 0 q12 0 20 -8 q8 -9 8 -21 l0 -370 q0 -12 -8 -20 q-8 -9 -20 -9 l-60 0 l0 -62 l255 0 l0 62 l-56 0 q-14 1 -23 7 q-8 5 -8 21 l0 390 l175 -480 l79 0 l177 484 l0 -393 q0 -12 -8 -20 q-8 -9 -20 -9 l-60 0 l0 -62 l284 0 l0 62 l-56 0 q-15 1 -23 7 q-9 5 -9 21 l0 372 q0 16 9 22 q8 5 23 6 l56 0 l0 62 Z" /><glyph glyph-name="" unicode="&#xf06e;" d="M588 461 q0 12 8 21 q7 8 19 8 l61 0 l0 62 l-256 0 l0 -62 l56 0 q16 -1 24 -6 q9 -6 9 -22 l0 -276 l3 -49 l-11 27 l-261 388 l-201 0 l0 -62 l60 0 q13 0 21 -8 q8 -9 8 -21 l0 -370 q0 -12 -8 -20 q-8 -9 -21 -9 l-60 0 l0 -62 l255 0 l0 62 l-56 0 q-14 1 -23 7 q-8 5 -8 21 l0 321 q-2 7 -4 21 q-2 15 -3 23 l22 -47 l279 -408 l87 0 l0 461 Z" /><glyph glyph-name="" unicode="&#xf06f;" d="M35 268 q4 -137 86 -213 q82 -77 193 -78 q129 3 207 85 q78 83 80 216 q-2 130 -79 209 q-77 80 -199 82 q-139 -3 -213 -87 q-74 -85 -75 -214 l0 0 ZM152 270 q-2 82 35 153 q37 70 134 74 q94 -4 128 -73 q34 -69 32 -149 q2 -83 -33 -151 q-35 -69 -132 -73 q-96 4 -131 70 q-35 66 -33 149 l0 0 Z" /><glyph glyph-name="" unicode="&#xf070;" d="M39 62 l0 -62 l287 0 l0 62 l-60 0 q-15 1 -23 7 q-9 5 -9 21 l0 147 l171 0 q68 2 107 47 q39 45 40 110 q-2 79 -52 118 q-50 40 -127 40 l-334 0 l0 -62 l60 0 q13 0 21 -8 q8 -9 8 -21 l0 -370 q0 -12 -8 -20 q-8 -9 -21 -9 l-60 0 ZM234 489 l110 0 q43 -1 69 -27 q26 -26 27 -68 q-1 -43 -28 -69 q-27 -26 -72 -27 l-106 0 l0 191 Z" /><glyph glyph-name="" unicode="&#xf072;" d="M39 62 l0 -62 l287 0 l0 62 l-59 0 q-16 1 -24 7 q-9 6 -9 22 l0 146 l95 0 q27 0 44 -11 q17 -11 20 -36 l12 -123 q5 -43 36 -62 q31 -20 82 -20 q74 1 96 33 q23 33 21 84 l0 69 l-69 0 l0 -92 q0 -14 -6 -21 q-6 -8 -20 -8 q-14 0 -19 7 q-6 6 -6 18 l-12 101 q-5 46 -24 67 q-19 21 -66 28 q62 8 98 40 q36 32 37 97 q-2 73 -47 109 q-46 35 -117 35 l-350 0 l0 -62 l61 0 q12 0 20 -9 q8 -8 8 -21 l0 -369 q0 -12 -8 -20 q-8 -9 -20 -9 l-61 0 ZM234 489 l116 0 q40 -1 65 -25 q24 -23 25 -61 q-1 -40 -26 -68 q-26 -29 -66 -30 l-114 0 l0 184 Z" /><glyph glyph-name="" unicode="&#xf073;" d="M120 35 q35 -33 68 -46 q33 -13 83 -12 q85 0 146 42 q61 42 64 131 q-1 56 -30 92 q-29 35 -69 48 l-194 64 q-24 8 -38 27 q-14 18 -14 40 q1 36 26 56 q25 21 66 21 q87 -1 125 -42 q37 -42 44 -115 l61 0 l0 210 l-54 0 l-25 -43 q-33 28 -71 42 q-38 14 -81 14 q-77 -1 -133 -46 q-55 -46 -58 -127 q0 -41 25 -82 q25 -41 81 -59 l200 -60 q24 -8 37 -25 q13 -18 13 -42 q-2 -43 -41 -60 q-39 -17 -86 -16 q-79 0 -114 38 q-35 37 -52 116 l-59 0 l0 -212 l54 0 l26 46 Z" /><glyph glyph-name="" unicode="&#xf074;" d="M512 552 l-492 0 l0 -206 l55 0 q3 65 21 104 q17 39 78 40 l37 0 l0 -400 q0 -12 -8 -20 q-7 -9 -20 -9 l-60 0 l0 -61 l288 0 l0 61 l-61 0 q-15 1 -23 7 q-8 5 -8 21 l0 401 l39 0 q62 -1 79 -40 q17 -39 21 -104 l54 0 l0 206 Z" /><glyph glyph-name="" unicode="&#xf075;" d="M206 142 l0 319 q0 16 9 22 q8 6 23 7 l53 0 l0 62 l-283 0 l0 -62 l62 0 q12 0 20 -8 q8 -9 8 -21 l0 -339 q5 -89 75 -117 q70 -28 150 -25 q75 -1 137 35 q62 35 66 117 l0 329 q0 12 8 21 q8 8 21 8 l59 0 l0 62 l-254 0 l0 -62 l55 0 q15 -1 24 -7 q8 -6 8 -22 l0 -311 q-1 -54 -35 -75 q-33 -21 -82 -20 q-47 -1 -84 18 q-38 18 -40 69 l0 0 Z" /><glyph glyph-name="" unicode="&#xf076;" d="M370 552 l0 -62 l24 0 q22 1 35 -3 q13 -4 13 -20 q4 6 -17 -52 q-20 -59 -107 -302 q-2 -8 -3 -19 q-1 -10 -2 -11 l-3 30 q-80 214 -106 284 q-25 71 -23 68 q0 9 5 17 q5 8 15 8 l55 0 l0 62 l-261 0 l0 -62 l27 0 q16 1 28 -3 q13 -4 19 -19 l176 -473 l104 0 q3 9 55 154 q51 144 114 312 q9 23 29 26 q19 4 44 3 l0 62 l-221 0 Z" /><glyph glyph-name="" unicode="&#xf077;" d="M646 552 l0 -62 l24 0 q22 1 36 -3 q14 -4 14 -20 q1 0 -22 -70 q-24 -70 -84 -264 q-3 -9 -5 -22 q-2 -14 -3 -15 l-7 35 q-54 176 -78 254 q-24 79 -24 80 q0 9 5 17 q6 8 16 8 l55 0 l0 62 l-276 0 l0 -62 l30 0 q16 1 28 -3 q13 -4 19 -19 l18 -60 q-10 -41 -33 -107 q-23 -65 -59 -170 q-2 -9 -5 -21 q-2 -13 -4 -14 l-6 31 q-49 164 -75 250 q-26 85 -26 88 q0 9 5 17 q5 8 16 8 l40 0 l0 62 l-245 0 l0 -62 l23 0 q16 1 28 -3 q12 -4 19 -19 l146 -473 l107 0 q1 4 33 97 q32 92 78 220 l98 -317 l116 0 q2 8 46 150 q43 142 99 316 q9 23 29 27 q20 3 45 2 l0 62 l-221 0 Z" /><glyph glyph-name="" unicode="&#xf079;" d="M325 552 l0 -62 l19 0 q26 1 36 -3 q10 -4 10 -20 q1 -4 -23 -41 q-24 -38 -89 -137 q-66 114 -82 145 q-17 31 -14 34 q0 9 5 15 q5 7 15 7 l48 0 l0 62 l-260 0 l0 -62 l24 0 q15 1 27 -3 q12 -4 20 -19 l157 -244 l0 -133 q0 -12 -8 -20 q-8 -9 -20 -9 l-60 0 l0 -62 l280 0 l0 62 l-56 0 q-15 0 -23 6 q-9 6 -9 22 l0 138 q102 169 124 201 q23 33 23 32 q13 19 35 24 q21 5 46 5 l0 62 l-225 0 Z" /><glyph glyph-name="" unicode="&#xf0e1;" d="M218 0 l0 62 l-24 0 q-22 -1 -35 3 q-14 4 -14 20 q-1 0 5 16 q5 16 25 72 l202 0 q22 -60 27 -73 q4 -14 3 -13 q0 -9 -5 -17 q-5 -8 -16 -8 l-54 0 l0 -62 l261 0 l0 62 l-27 0 q-16 -1 -29 3 q-12 4 -18 19 l-176 473 l-104 0 q-3 -9 -54 -153 q-52 -145 -115 -313 q-9 -23 -29 -26 q-20 -4 -44 -3 l0 -62 l221 0 ZM270 439 q1 8 3 19 q1 10 2 11 l3 -30 l75 -203 l-155 0 q13 37 30 87 q18 50 42 116 l0 0 ZM310 745 q-50 -84 -67 -113 q-17 -29 -18 -30 l73 0 l153 143 l-141 0 Z" /><glyph glyph-name="" unicode="þ&#xfb01;" d="M636 0 l0 61 l-55 0 q-14 0 -22 9 q-8 8 -8 29 l0 433 l-138 -17 l-192 0 l0 139 q2 28 27 46 q26 18 56 19 q15 0 32 -2 q18 -2 19 -2 q-8 -10 -13 -20 q-5 -10 -5 -25 q0 -25 16 -41 q16 -16 42 -17 q30 1 48 20 q18 19 19 49 q-4 54 -56 74 q-52 21 -100 20 q-85 1 -138 -30 q-52 -30 -54 -97 l0 -133 l-81 0 l0 -58 l80 0 l0 -358 q-1 -23 -11 -31 q-11 -8 -19 -7 l-56 -3 l0 -58 l276 0 l0 61 l-51 0 q-15 0 -23 9 q-8 8 -8 29 l0 358 l198 0 q8 0 16 -5 q7 -6 8 -21 l0 -332 q-1 -23 -11 -31 q-10 -8 -18 -7 l-49 -3 l0 -58 l271 0 Z" /><glyph glyph-name="" unicode="ß&#xfb02;" d="M455 726 q-23 24 -62 36 q-40 12 -78 12 q-118 -1 -161 -50 q-43 -48 -40 -131 l0 -78 l-81 0 l0 -58 l80 0 l0 -358 q-1 -23 -11 -31 q-11 -8 -19 -7 l-56 -3 l0 -58 l281 0 l0 61 l-56 0 q-15 0 -23 9 q-8 8 -8 29 l0 358 l140 0 l0 58 l-140 0 l0 102 q1 48 30 75 q30 26 79 26 q26 1 58 -13 q31 -15 55 -50 l0 -556 q-1 -23 -11 -31 q-11 -8 -19 -7 l-49 -3 l0 -58 l273 0 l0 61 l-55 0 q-15 0 -23 9 q-8 8 -8 29 l0 664 l-96 -37 Z" /></font>
</defs>
</svg>
